<svg width="36" height="36" viewBox="0 0 36 36" fill="none" xmlns="http://www.w3.org/2000/svg">
<path d="M2.55253 12.9443L3.24509 14.6268H1.86393L2.55253 12.9443Z" fill="#006FCF"/>
<path d="M18.5021 13.9569C18.363 14.041 18.1986 14.0438 18.0015 14.0438H16.7723V13.1064H18.0183C18.1946 13.1064 18.3786 13.1143 18.4981 13.1825C18.6294 13.244 18.7106 13.3749 18.7106 13.5556C18.7106 13.7401 18.6333 13.8885 18.5021 13.9569Z" fill="#006FCF"/>
<path d="M26.5709 12.9443L27.2711 14.6268H25.8745L26.5709 12.9443Z" fill="#006FCF"/>
<path fill-rule="evenodd" clip-rule="evenodd" d="M0 17.277H1.72897L2.11879 16.3395H2.99151L3.38031 17.277H6.78194V16.5603L7.08557 17.28H8.85144L9.15507 16.5496V17.277H17.6088L17.6048 15.7382H17.7684C17.8829 15.7421 17.9164 15.7527 17.9164 15.9412V17.277H22.2886V16.9188C22.6413 17.1072 23.1898 17.277 23.9116 17.277H25.7511L26.1447 16.3395H27.0174L27.4024 17.277H30.947V16.3865L31.4838 17.277H34.3243V11.3906H31.5132V12.0858L31.1195 11.3906H28.235V12.0858L27.8735 11.3906H23.9773C23.3251 11.3906 22.7518 11.4814 22.2886 11.7343V11.3906H19.5999V11.7343C19.3052 11.4736 18.9036 11.3906 18.4571 11.3906H8.63399L7.97489 12.911L7.29804 11.3906H4.204V12.0858L3.8641 11.3906H1.22538L0 14.1893V17.277ZM15.0593 16.448H11.6791V12.2275H15.0593V13.1064H12.691V13.8671H15.0025V14.7322H12.691V15.5751H15.0593V16.448ZM9.88772 16.448H10.9249V12.2275H9.24023L8.02379 15.0906L6.69958 12.2275H5.04811V16.2234L3.32719 12.2275H1.82383L0.0118704 16.448H1.11085L1.5036 15.5066H3.61039L3.99919 16.448H6.0572V13.1396L7.52825 16.448H8.41667L9.88389 13.1425L9.88772 16.448ZM19.8252 13.3641C19.8252 14.0371 19.3748 14.3847 19.1122 14.4891C19.3337 14.5731 19.5228 14.7215 19.6128 14.8445C19.7556 15.0544 19.7803 15.242 19.7803 15.6189V16.448H18.7597L18.7559 15.9157C18.7559 15.89 18.7561 15.8631 18.7564 15.8354C18.7587 15.5894 18.7616 15.276 18.5961 15.0935C18.4483 14.9451 18.2229 14.9129 17.8586 14.9129H16.7724V16.448H15.7607V12.2275H18.088C18.6051 12.2275 18.9861 12.2411 19.3132 12.4296C19.6333 12.6182 19.8252 12.8934 19.8252 13.3641ZM21.4445 16.448H20.4121V12.2275H21.4445V16.448ZM33.4223 16.448H31.9884L30.0705 13.2803V16.448H28.0098L27.616 15.5066H25.5141L25.132 16.448H23.948C23.4562 16.448 22.8335 16.3395 22.4808 15.9812C22.1252 15.6228 21.9402 15.1374 21.9402 14.3699C21.9402 13.744 22.0508 13.1718 22.4857 12.7196C22.8128 12.3828 23.3251 12.2275 24.0223 12.2275H25.0019V13.1318H24.0429C23.6736 13.1318 23.4651 13.1866 23.2643 13.3818C23.0918 13.5596 22.9734 13.8955 22.9734 14.3379C22.9734 14.79 23.0636 15.1161 23.2516 15.329C23.4074 15.496 23.6905 15.5467 23.9568 15.5467H24.4113L25.8374 12.2276H27.3535L29.0666 16.2196V12.2276H30.6073L32.3859 15.167V12.2276H33.4223V16.448Z" fill="#006FCF"/>
<path d="M22.3337 21.313C22.5306 21.313 22.698 21.3062 22.8333 21.2261C22.9645 21.147 23.0429 21.0015 23.0429 20.8209C23.0429 20.6403 22.9645 20.5095 22.8333 20.4412C22.7109 20.3687 22.5306 20.3649 22.3504 20.3649H21.1045V21.313H22.3337Z" fill="#006FCF"/>
<path d="M14.0268 21.6098L15.5804 23.3293V19.9448L14.0268 21.6098Z" fill="#006FCF"/>
<path d="M9.08062 22.8335H11.5684L12.7242 21.595L11.6174 20.3648H9.08062V21.1323H11.3021V21.9936H9.08062V22.8335Z" fill="#006FCF"/>
<path d="M16.5882 21.44H17.8958C18.2846 21.44 18.5264 21.2476 18.5264 20.8825C18.5264 20.5133 18.2729 20.3649 17.9075 20.3649H16.5882V21.44Z" fill="#006FCF"/>
<path fill-rule="evenodd" clip-rule="evenodd" d="M36 23.1733C35.7542 23.5316 35.2753 23.7133 34.6269 23.7133H32.6728V22.808H34.619C34.812 22.808 34.9471 22.7827 35.0284 22.7035C35.0989 22.6382 35.1481 22.5434 35.1481 22.4282C35.1481 22.3052 35.0989 22.2076 35.0245 22.149C34.9511 22.0846 34.8442 22.0553 34.668 22.0553C34.6058 22.0532 34.5427 22.0515 34.4789 22.0498C33.5679 22.0252 32.5326 21.9972 32.5326 20.7487C32.5326 20.1364 32.9226 19.4919 33.9844 19.4919H35.9999V18.6519H34.1273C33.5621 18.6519 33.1516 18.7869 32.8609 18.9967V18.6519H30.091C29.6481 18.6519 29.1282 18.7614 28.8822 18.9967V18.6519H23.936V18.9967C23.5424 18.7136 22.8782 18.6519 22.5716 18.6519H19.309V18.9967C18.9976 18.696 18.305 18.6519 17.8829 18.6519H14.2315L13.396 19.5535L12.6134 18.6519H7.15898V24.5424H12.5107L13.3717 23.6266L14.1828 24.5424L17.4816 24.5453V23.1596H17.8059C18.2436 23.1664 18.7598 23.1488 19.2153 22.9525V24.5422H21.9362V23.007H22.0675C22.235 23.007 22.2515 23.0139 22.2515 23.1808V24.5421H30.5172C31.042 24.5421 31.5906 24.4082 31.8943 24.1652V24.5421H34.5162C35.0618 24.5421 35.5946 24.4659 36 24.2706V23.1733ZM31.9638 21.4868C32.1608 21.6901 32.2664 21.9467 32.2664 22.3812C32.2664 23.2893 31.6973 23.7133 30.6769 23.7133H28.7061V22.808H30.6689C30.8608 22.808 30.997 22.7827 31.0823 22.7035C31.1518 22.6382 31.2018 22.5434 31.2018 22.4282C31.2018 22.3052 31.1478 22.2075 31.0783 22.149C31.0009 22.0846 30.8942 22.0553 30.718 22.0553C30.656 22.0532 30.593 22.0515 30.5294 22.0498C29.6216 22.0252 28.5867 21.9971 28.5867 20.7487C28.5867 20.1364 28.9725 19.4919 30.0333 19.4919H32.0618V20.3903H30.2057C30.0217 20.3903 29.9021 20.3972 29.8003 20.4666C29.6895 20.535 29.6484 20.6364 29.6484 20.7703C29.6484 20.9296 29.7425 21.0379 29.8698 21.0848C29.9765 21.1218 30.0912 21.1326 30.2635 21.1326L30.8082 21.1473C31.3575 21.1606 31.7346 21.2553 31.9638 21.4868ZM23.4444 21.7514C23.6697 21.8343 23.8538 21.9829 23.9401 22.1058C24.083 22.3119 24.1037 22.5043 24.1078 22.8764V23.7133H23.0919V23.1851C23.0919 23.1597 23.0922 23.1332 23.0924 23.1057C23.0947 22.8578 23.0976 22.5355 22.9283 22.3588C22.7805 22.2076 22.5551 22.1714 22.186 22.1714H21.1046V23.7133H20.0879V19.4917H22.424C22.9363 19.4917 23.3094 19.5143 23.6415 19.691C23.9608 19.8833 24.1616 20.1468 24.1616 20.6284C24.1615 21.3022 23.7108 21.646 23.4444 21.7514ZM24.7227 19.4917H28.0998V20.3648H25.7304V21.1322H28.042V21.9936H25.7304V22.8335L28.0998 22.8373V23.7133H24.7227V19.4917ZM19.6128 20.8825C19.6128 22.0552 18.7352 22.2973 17.8507 22.2973H16.5882V23.7133H14.6215L13.3755 22.3158L12.0807 23.7133H8.07269V19.4917H12.1424L13.3873 20.8755L14.6743 19.4917H17.9075C18.7106 19.4917 19.6128 19.7134 19.6128 20.8825Z" fill="#006FCF"/>
<path d="M34.1559 20.3901H36V21.5913C35.9983 21.5892 35.9967 21.5871 35.9951 21.5849L35.9898 21.5781L35.9871 21.5745L35.987 21.5744C35.9637 21.544 35.9407 21.5139 35.9061 21.4868C35.6809 21.2555 35.3115 21.1606 34.7581 21.147L34.2097 21.1324C34.0412 21.1324 33.9265 21.1215 33.8198 21.0845C33.6887 21.0377 33.5985 20.9293 33.5985 20.7701C33.5985 20.6361 33.6396 20.5347 33.7464 20.4663C33.8494 20.397 33.9717 20.3901 34.1559 20.3901Z" fill="#006FCF"/>
</svg>
