<svg width="36" height="36" viewBox="0 0 36 36" fill="none" xmlns="http://www.w3.org/2000/svg">
<path d="M6.57788 12.5229C6.15596 13.0222 5.48088 13.4159 4.8058 13.3597C4.72142 12.6846 5.05192 11.9673 5.43869 11.5243C5.86061 11.011 6.59898 10.6453 7.1967 10.6172C7.26702 11.3204 6.99277 12.0095 6.57788 12.5229ZM7.18967 13.4933C6.21221 13.437 5.3754 14.0488 4.91128 14.0488C4.44013 14.0488 3.7299 13.5214 2.95637 13.5355C1.95079 13.5496 1.01552 14.1192 0.502183 15.0263C-0.552625 16.8406 0.227933 19.5268 1.24758 21.0035C1.74686 21.7349 2.34458 22.5365 3.13217 22.5084C3.87757 22.4803 4.17292 22.0232 5.07302 22.0232C5.98015 22.0232 6.24034 22.5084 7.02793 22.4943C7.84365 22.4803 8.35699 21.763 8.85627 21.0317C9.42586 20.2019 9.65792 19.3932 9.67198 19.351C9.65792 19.3369 8.0968 18.7392 8.08274 16.939C8.06868 15.4341 9.31335 14.7169 9.36961 14.6747C8.6664 13.6339 7.5694 13.5214 7.18967 13.4933ZM12.8364 11.454V22.417H14.5382V18.6689H16.8939C19.0457 18.6689 20.5576 17.1922 20.5576 15.0544C20.5576 12.9167 19.0738 11.454 16.9502 11.454H12.8364ZM14.5382 12.8885H16.5001C17.9768 12.8885 18.8207 13.6761 18.8207 15.0614C18.8207 16.4468 17.9768 17.2414 16.4931 17.2414H14.5382V12.8885ZM23.6658 22.5014C24.7346 22.5014 25.7262 21.9599 26.1762 21.102H26.2114V22.417H27.7866V16.9601C27.7866 15.3779 26.5208 14.3582 24.5729 14.3582C22.7657 14.3582 21.4296 15.392 21.3804 16.8124H22.9133C23.0399 16.1374 23.6658 15.6943 24.5237 15.6943C25.5644 15.6943 26.1481 16.1795 26.1481 17.0726V17.6774L24.0244 17.8039C22.0484 17.9235 20.9795 18.7322 20.9795 20.1386C20.9795 21.5591 22.0836 22.5014 23.6658 22.5014ZM24.1229 21.2004C23.2157 21.2004 22.6391 20.7644 22.6391 20.0964C22.6391 19.4073 23.1946 19.0064 24.2565 18.9431L26.1481 18.8236V19.4424C26.1481 20.4691 25.2761 21.2004 24.1229 21.2004ZM29.8891 25.3986C31.5487 25.3986 32.3293 24.7657 33.0114 22.8459L36 14.4637H34.2701L32.266 20.9402H32.2308L30.2267 14.4637H28.4476L31.3307 22.4451L31.176 22.9303C30.9158 23.7531 30.4939 24.0695 29.7415 24.0695C29.6079 24.0695 29.3477 24.0554 29.2422 24.0414V25.3564C29.3406 25.3845 29.7626 25.3986 29.8891 25.3986Z" fill="black"/>
</svg>
