<svg width="37" height="36" viewBox="0 0 37 36" fill="none" xmlns="http://www.w3.org/2000/svg">
    <path
        d="M18.5 30L17.7929 30.7071L18.5 31.4142L19.2071 30.7071L18.5 30ZM19.5 7.5C19.5 6.94772 19.0523 6.5 18.5 6.5C17.9477 6.5 17.5 6.94772 17.5 7.5L19.5 7.5ZM9.5 21L8.79289 21.7071L17.7929 30.7071L18.5 30L19.2071 29.2929L10.2071 20.2929L9.5 21ZM18.5 30L19.2071 30.7071L28.2071 21.7071L27.5 21L26.7929 20.2929L17.7929 29.2929L18.5 30ZM18.5 30L19.5 30L19.5 7.5L18.5 7.5L17.5 7.5L17.5 30L18.5 30Z"
        fill="#C0A5F9" />
</svg>