<svg width="32" height="32" viewBox="0 0 32 32" fill="none" xmlns="http://www.w3.org/2000/svg">
<g clip-path="url(#clip0_370_243)">
<path d="M32 16C32 19.1645 31.0616 22.2579 29.3035 24.8891C27.5454 27.5203 25.0466 29.5711 22.1229 30.7821C19.1993 31.9931 15.9823 32.3099 12.8786 31.6926C9.77487 31.0752 6.92394 29.5514 4.6863 27.3137C2.44866 25.0761 0.924806 22.2251 0.307443 19.1214C-0.309921 16.0177 0.00693248 12.8007 1.21793 9.87707C2.42894 6.95345 4.4797 4.45459 7.11088 2.69649C9.74207 0.938384 12.8355 0 16 0C20.2435 0 24.3131 1.68571 27.3137 4.68629C30.3143 7.68687 32 11.7565 32 16Z" fill="#F7931A"/>
<path fill-rule="evenodd" clip-rule="evenodd" d="M11.372 7.30621L15.049 8.29093L15.8709 5.22766L17.7094 5.72657L16.9196 8.6633L18.4192 9.06621L19.2105 6.09748L21.081 6.59784L20.2752 9.58257C20.2752 9.58257 23.3298 10.2589 24.0483 12.7433C24.7669 15.2277 22.4687 16.5324 21.7589 16.5818C21.7589 16.5818 24.4352 18.0495 23.516 20.9368C22.5967 23.824 19.7749 24.3404 16.8061 23.6786L16.0003 26.7738L14.1298 26.2735L14.9516 23.2262L13.468 22.8218L12.6461 25.8909L10.7901 25.392L11.6134 22.3375L7.83887 21.3193L8.79014 19.2073C8.79014 19.2073 9.85487 19.4982 10.2578 19.5942C10.6607 19.6902 10.9196 19.2713 11.033 18.8524C11.1465 18.4335 12.8556 11.4909 13.017 10.9193C13.1785 10.3477 13.113 9.90112 12.4352 9.72512C11.7574 9.54912 10.8352 9.27421 10.8352 9.27421L11.372 7.30621ZM15.081 16.5004L14.0629 20.5484C14.0629 20.5484 19.1116 22.3709 19.7574 19.8066C20.4032 17.2422 15.081 16.5004 15.081 16.5004ZM15.5494 14.5804L16.5487 10.8713C16.5487 10.8713 20.8716 11.6451 20.3392 13.7091C19.8069 15.7731 17.2585 14.9818 15.5494 14.5804Z" fill="white"/>
</g>
<defs>
<clipPath id="clip0_370_243">
<rect width="32" height="32" fill="white"/>
</clipPath>
</defs>
</svg>
