<svg width="173" height="36" viewBox="0 0 173 36" fill="none" xmlns="http://www.w3.org/2000/svg">
<g clip-path="url(#clip0_370_79)">
<path d="M51.362 27.5522C54.8996 27.5522 57.1229 25.3366 57.7293 23.3225L54.8491 22.1644C54.4192 23.675 53.1559 24.7072 51.4379 24.7072C49.2904 24.7072 47.6225 23.0959 47.6225 20.6286C47.6225 18.1613 49.2904 16.55 51.4126 16.55C53.1306 16.55 54.3434 17.5822 54.7732 19.118L57.6534 17.985C57.0471 15.9206 54.8238 13.705 51.362 13.705C47.3449 13.705 44.4141 16.7262 44.4141 20.6538C44.4141 24.5813 47.3954 27.5522 51.362 27.5522Z" fill="white"/>
<path d="M62.6608 15.4674V13.982H59.6289V27.2501H62.8378V19.6971C62.8378 17.9096 64.303 16.6759 66.6279 16.6759V13.6799C64.96 13.6799 63.5706 14.41 62.6608 15.4674Z" fill="white"/>
<path d="M77.6593 13.9819L73.8946 24.682L70.4585 13.9819H67.1484L71.8483 27.25H72.8588L71.0396 31.7567H74.198L75.916 27.25L80.9946 13.9819H77.6593Z" fill="white"/>
<path d="M90.0294 13.6799C88.1348 13.6799 86.5933 14.4352 85.5575 15.7192V13.982H82.5762V31.7567H85.7847V25.8402C86.7956 26.9228 88.2102 27.5522 89.954 27.5522C93.7688 27.5522 96.5484 24.5814 96.5484 20.6287C96.5484 16.6507 93.8447 13.6799 90.0294 13.6799ZM89.5241 24.7324C87.225 24.7324 85.6587 23.0456 85.6587 20.6287C85.6587 18.2117 87.225 16.5249 89.5241 16.5249C91.7225 16.5249 93.3394 18.262 93.3394 20.6287C93.3394 22.9701 91.7225 24.7324 89.5241 24.7324Z" fill="white"/>
<path d="M104.478 27.2501H106.575V24.4555H105.109C103.669 24.4555 102.886 23.6246 102.886 22.0889V16.7262H106.474V13.982H102.987V10.5328H99.8538V12.6224C99.8538 13.5288 99.4244 13.982 98.5399 13.982H97.3271V16.7262H99.652V22.4414C99.652 25.3618 101.294 27.2501 104.478 27.2501Z" fill="white"/>
<path d="M114.556 27.5522C118.7 27.5522 121.656 24.5814 121.656 20.6287C121.656 16.6507 118.7 13.6799 114.556 13.6799C110.387 13.6799 107.456 16.6507 107.456 20.6287C107.456 24.5814 110.387 27.5522 114.556 27.5522ZM114.581 24.7073C112.257 24.7073 110.665 22.9952 110.665 20.6287C110.665 18.2368 112.257 16.55 114.581 16.55C116.881 16.55 118.422 18.2368 118.422 20.6035C118.422 22.9952 116.855 24.7073 114.581 24.7073Z" fill="white"/>
<path d="M139.722 13.6799C137.473 13.6799 135.957 14.6114 135.224 15.8451C134.466 14.4604 133.127 13.6799 131.005 13.6799C129.211 13.6799 127.821 14.4352 126.987 15.4423V13.982H123.955V27.2249H127.164V19.1936C127.189 17.9348 128.2 16.55 130.019 16.5249C131.813 16.5249 132.798 17.8592 132.798 19.5964V27.2249H136.007V19.1936C136.033 17.9599 137.018 16.55 138.862 16.5249C140.656 16.5249 141.617 17.8844 141.617 19.5964V27.2249H144.825V19.0173C144.825 16.0213 143.031 13.6799 139.722 13.6799Z" fill="white"/>
<path d="M156.612 13.9819V22.0133C156.612 23.4735 155.449 24.682 153.655 24.7072C151.861 24.7072 150.725 23.5239 150.725 21.8119V13.9819H147.516V22.2147C147.516 25.2862 149.335 27.5521 152.721 27.5521C154.439 27.5521 155.879 26.822 156.814 25.7898V27.25H159.82V13.9819H156.612Z" fill="white"/>
<path d="M167.492 27.5522C170.827 27.5522 173 25.9913 173 23.3477C173 18.4886 165.698 19.8733 165.698 17.4564C165.698 16.6507 166.329 16.1472 167.517 16.1472C168.629 16.1472 169.412 16.6255 169.765 17.6326L172.57 16.55C172.014 14.7373 170.145 13.6799 167.567 13.6799C164.434 13.6799 162.413 15.1905 162.413 17.6074C162.413 22.1644 169.715 20.9559 169.715 23.5743C169.715 24.5059 168.907 25.0345 167.618 25.0345C166.001 25.0345 164.965 24.3044 164.586 23.0708L161.781 24.1534C162.514 26.3941 164.611 27.5522 167.492 27.5522Z" fill="white"/>
<path d="M32.1474 8.86787L18.6657 1.1027C18.0583 0.752061 17.3008 0.752061 16.69 1.1027L3.2083 8.86787C2.59751 9.21851 2.21875 9.87217 2.21875 10.5769V26.1072C2.21875 26.8086 2.59751 27.4621 3.2083 27.8162L16.69 35.5816C16.9903 35.7552 17.3315 35.8437 17.6796 35.8437C18.0276 35.8437 18.3688 35.7518 18.6691 35.5816L32.1508 27.8162C32.7616 27.4655 33.1404 26.812 33.1404 26.1072V10.5769C33.1404 9.87557 32.7616 9.22192 32.1508 8.86787H32.1474ZM17.9833 17.3786C17.7956 17.4876 17.5601 17.4876 17.3724 17.3786L4.26609 9.83127L17.3724 2.28399C17.5567 2.17846 17.799 2.17846 17.9833 2.28399L31.0896 9.83127L17.9833 17.3786ZM16.69 18.5565C16.7856 18.611 16.8879 18.6586 16.9971 18.6961V34.1788L3.89074 26.6349C3.70307 26.5259 3.58364 26.3251 3.58364 26.1072V11.0092L16.69 18.5565Z" fill="white"/>
</g>
<defs>
<clipPath id="clip0_370_79">
<rect width="173" height="35.4047" fill="white" transform="translate(0 0.5)"/>
</clipPath>
</defs>
</svg>
