<svg width="36" height="36" viewBox="0 0 36 36" fill="none" xmlns="http://www.w3.org/2000/svg">
    <g clip-path="url(#clip0_128_267)">
        <path fill-rule="evenodd" clip-rule="evenodd"
            d="M19.5901 24.0901C19.1682 24.5114 18.5963 24.7481 18.0001 24.7481C17.4038 24.7481 16.832 24.5114 16.4101 24.0901L7.92309 15.6061C7.5012 15.184 7.26426 14.6116 7.2644 14.0148C7.26455 13.418 7.50175 12.8457 7.92384 12.4238C8.34594 12.0019 8.91834 11.765 9.51513 11.7651C10.1119 11.7653 10.6842 12.0025 11.1061 12.4246L18.0001 19.3186L24.8941 12.4246C25.3183 12.0145 25.8865 11.7875 26.4765 11.7923C27.0664 11.7972 27.6308 12.0335 28.0482 12.4505C28.4656 12.8675 28.7025 13.4317 28.7079 14.0216C28.7133 14.6116 28.4868 15.18 28.0771 15.6046L19.5916 24.0916L19.5901 24.0901Z"
            fill="white" />
    </g>
    <defs>
        <clipPath id="clip0_128_267">
            <rect width="36" height="36" fill="white" transform="matrix(0 -1 1 0 0 36)" />
        </clipPath>
    </defs>
</svg>