<svg width="3036" height="1649" viewBox="0 0 3036 1649" fill="none" xmlns="http://www.w3.org/2000/svg">
<g filter="url(#filter0_f_413_67)">
<ellipse cx="1518" cy="824.5" rx="960" ry="266.5" fill="url(#paint0_linear_413_67)"/>
<path d="M1518 556.5C1783.19 556.5 2023.33 586.338 2197.22 634.61C2284.16 658.744 2354.62 687.508 2403.38 719.512C2452.08 751.476 2479.5 786.922 2479.5 824.5C2479.5 862.078 2452.08 897.524 2403.38 929.488C2354.62 961.492 2284.16 990.256 2197.22 1014.39C2023.33 1062.66 1783.19 1092.5 1518 1092.5C1252.81 1092.5 1012.67 1062.66 838.776 1014.39C751.842 990.256 681.38 961.492 632.618 929.488C583.917 897.524 556.5 862.078 556.5 824.5C556.5 786.922 583.917 751.476 632.618 719.512C681.38 687.508 751.842 658.744 838.776 634.61C1012.67 586.338 1252.81 556.5 1518 556.5Z" stroke="url(#paint1_linear_413_67)" stroke-width="3"/>
</g>
<g filter="url(#filter1_f_413_67)">
<ellipse cx="1518" cy="824.5" rx="960" ry="266.5" fill="url(#paint2_linear_413_67)"/>
<path d="M1518 556.5C1783.19 556.5 2023.33 586.338 2197.22 634.61C2284.16 658.744 2354.62 687.508 2403.38 719.512C2452.08 751.476 2479.5 786.922 2479.5 824.5C2479.5 862.078 2452.08 897.524 2403.38 929.488C2354.62 961.492 2284.16 990.256 2197.22 1014.39C2023.33 1062.66 1783.19 1092.5 1518 1092.5C1252.81 1092.5 1012.67 1062.66 838.776 1014.39C751.842 990.256 681.38 961.492 632.618 929.488C583.917 897.524 556.5 862.078 556.5 824.5C556.5 786.922 583.917 751.476 632.618 719.512C681.38 687.508 751.842 658.744 838.776 634.61C1012.67 586.338 1252.81 556.5 1518 556.5Z" stroke="url(#paint3_linear_413_67)" stroke-width="3"/>
</g>
<path d="M1518 556.5C1783.19 556.5 2023.33 586.338 2197.22 634.61C2284.16 658.744 2354.62 687.508 2403.38 719.512C2452.08 751.476 2479.5 786.922 2479.5 824.5C2479.5 862.078 2452.08 897.524 2403.38 929.488C2354.62 961.492 2284.16 990.256 2197.22 1014.39C2023.33 1062.66 1783.19 1092.5 1518 1092.5C1252.81 1092.5 1012.67 1062.66 838.776 1014.39C751.842 990.256 681.38 961.492 632.618 929.488C583.917 897.524 556.5 862.078 556.5 824.5C556.5 786.922 583.917 751.476 632.618 719.512C681.38 687.508 751.842 658.744 838.776 634.61C1012.67 586.338 1252.81 556.5 1518 556.5Z" fill="url(#paint4_linear_413_67)" stroke="url(#paint5_linear_413_67)" stroke-width="3"/>
<g filter="url(#filter2_f_413_67)">
<ellipse cx="1518" cy="824.5" rx="960" ry="266.5" fill="url(#paint6_linear_413_67)"/>
<path d="M1518 556.5C1783.19 556.5 2023.33 586.338 2197.22 634.61C2284.16 658.744 2354.62 687.508 2403.38 719.512C2452.08 751.476 2479.5 786.922 2479.5 824.5C2479.5 862.078 2452.08 897.524 2403.38 929.488C2354.62 961.492 2284.16 990.256 2197.22 1014.39C2023.33 1062.66 1783.19 1092.5 1518 1092.5C1252.81 1092.5 1012.67 1062.66 838.776 1014.39C751.842 990.256 681.38 961.492 632.618 929.488C583.917 897.524 556.5 862.078 556.5 824.5C556.5 786.922 583.917 751.476 632.618 719.512C681.38 687.508 751.842 658.744 838.776 634.61C1012.67 586.338 1252.81 556.5 1518 556.5Z" stroke="url(#paint7_linear_413_67)" stroke-width="3"/>
</g>
<g filter="url(#filter3_f_413_67)">
<ellipse cx="1518" cy="824.5" rx="960" ry="266.5" fill="url(#paint8_linear_413_67)"/>
<path d="M1518 556.5C1783.19 556.5 2023.33 586.338 2197.22 634.61C2284.16 658.744 2354.62 687.508 2403.38 719.512C2452.08 751.476 2479.5 786.922 2479.5 824.5C2479.5 862.078 2452.08 897.524 2403.38 929.488C2354.62 961.492 2284.16 990.256 2197.22 1014.39C2023.33 1062.66 1783.19 1092.5 1518 1092.5C1252.81 1092.5 1012.67 1062.66 838.776 1014.39C751.842 990.256 681.38 961.492 632.618 929.488C583.917 897.524 556.5 862.078 556.5 824.5C556.5 786.922 583.917 751.476 632.618 719.512C681.38 687.508 751.842 658.744 838.776 634.61C1012.67 586.338 1252.81 556.5 1518 556.5Z" stroke="url(#paint9_linear_413_67)" stroke-width="3"/>
</g>
<path d="M1518 556.5C1783.19 556.5 2023.33 586.338 2197.22 634.61C2284.16 658.744 2354.62 687.508 2403.38 719.512C2452.08 751.476 2479.5 786.922 2479.5 824.5C2479.5 862.078 2452.08 897.524 2403.38 929.488C2354.62 961.492 2284.16 990.256 2197.22 1014.39C2023.33 1062.66 1783.19 1092.5 1518 1092.5C1252.81 1092.5 1012.67 1062.66 838.776 1014.39C751.842 990.256 681.38 961.492 632.618 929.488C583.917 897.524 556.5 862.078 556.5 824.5C556.5 786.922 583.917 751.476 632.618 719.512C681.38 687.508 751.842 658.744 838.776 634.61C1012.67 586.338 1252.81 556.5 1518 556.5Z" fill="url(#paint10_linear_413_67)" stroke="url(#paint11_linear_413_67)" stroke-width="3"/>
<defs>
<filter id="filter0_f_413_67" x="0" y="0" width="3036" height="1649" filterUnits="userSpaceOnUse" color-interpolation-filters="sRGB">
<feFlood flood-opacity="0" result="BackgroundImageFix"/>
<feBlend mode="normal" in="SourceGraphic" in2="BackgroundImageFix" result="shape"/>
<feGaussianBlur stdDeviation="277.5" result="effect1_foregroundBlur_413_67"/>
</filter>
<filter id="filter1_f_413_67" x="222" y="222" width="2592" height="1205" filterUnits="userSpaceOnUse" color-interpolation-filters="sRGB">
<feFlood flood-opacity="0" result="BackgroundImageFix"/>
<feBlend mode="normal" in="SourceGraphic" in2="BackgroundImageFix" result="shape"/>
<feGaussianBlur stdDeviation="166.5" result="effect1_foregroundBlur_413_67"/>
</filter>
<filter id="filter2_f_413_67" x="0" y="0" width="3036" height="1649" filterUnits="userSpaceOnUse" color-interpolation-filters="sRGB">
<feFlood flood-opacity="0" result="BackgroundImageFix"/>
<feBlend mode="normal" in="SourceGraphic" in2="BackgroundImageFix" result="shape"/>
<feGaussianBlur stdDeviation="277.5" result="effect1_foregroundBlur_413_67"/>
</filter>
<filter id="filter3_f_413_67" x="222" y="222" width="2592" height="1205" filterUnits="userSpaceOnUse" color-interpolation-filters="sRGB">
<feFlood flood-opacity="0" result="BackgroundImageFix"/>
<feBlend mode="normal" in="SourceGraphic" in2="BackgroundImageFix" result="shape"/>
<feGaussianBlur stdDeviation="166.5" result="effect1_foregroundBlur_413_67"/>
</filter>
<linearGradient id="paint0_linear_413_67" x1="1518" y1="558" x2="1518" y2="1091" gradientUnits="userSpaceOnUse">
<stop stop-color="#6B00C9"/>
<stop offset="0.298866" stop-color="#350063" stop-opacity="0"/>
</linearGradient>
<linearGradient id="paint1_linear_413_67" x1="1518" y1="695.5" x2="1518" y2="558" gradientUnits="userSpaceOnUse">
<stop stop-color="#666666" stop-opacity="0"/>
<stop offset="0.49106" stop-color="#6B00C9"/>
<stop offset="0.792736" stop-color="#9C4AE4"/>
<stop offset="1" stop-color="#C17BFF"/>
</linearGradient>
<linearGradient id="paint2_linear_413_67" x1="1518" y1="558" x2="1518" y2="1091" gradientUnits="userSpaceOnUse">
<stop stop-color="#6B00C9"/>
<stop offset="0.298866" stop-color="#350063" stop-opacity="0.18"/>
</linearGradient>
<linearGradient id="paint3_linear_413_67" x1="1518" y1="695.5" x2="1518" y2="558" gradientUnits="userSpaceOnUse">
<stop stop-color="#666666" stop-opacity="0"/>
<stop offset="0.49106" stop-color="#6B00C9"/>
<stop offset="0.792736" stop-color="#9C4AE4"/>
<stop offset="1" stop-color="#C17BFF"/>
</linearGradient>
<linearGradient id="paint4_linear_413_67" x1="1518" y1="558" x2="1518" y2="1091" gradientUnits="userSpaceOnUse">
<stop stop-color="#6B00C9"/>
<stop offset="0.298866" stop-color="#350063" stop-opacity="0"/>
</linearGradient>
<linearGradient id="paint5_linear_413_67" x1="1518" y1="695.5" x2="1518" y2="558" gradientUnits="userSpaceOnUse">
<stop stop-color="#666666" stop-opacity="0"/>
<stop offset="0.49106" stop-color="#6B00C9"/>
<stop offset="0.792736" stop-color="#9C4AE4"/>
<stop offset="1" stop-color="#C17BFF"/>
</linearGradient>
<linearGradient id="paint6_linear_413_67" x1="1518" y1="558" x2="1518" y2="1091" gradientUnits="userSpaceOnUse">
<stop stop-color="#6B00C9"/>
<stop offset="0.298866" stop-color="#350063" stop-opacity="0"/>
</linearGradient>
<linearGradient id="paint7_linear_413_67" x1="1518" y1="695.5" x2="1518" y2="558" gradientUnits="userSpaceOnUse">
<stop stop-color="#666666" stop-opacity="0"/>
<stop offset="0.49106" stop-color="#6B00C9"/>
<stop offset="0.792736" stop-color="#9C4AE4"/>
<stop offset="1" stop-color="#C17BFF"/>
</linearGradient>
<linearGradient id="paint8_linear_413_67" x1="1518" y1="558" x2="1518" y2="1091" gradientUnits="userSpaceOnUse">
<stop stop-color="#6B00C9"/>
<stop offset="0.298866" stop-color="#350063" stop-opacity="0.18"/>
</linearGradient>
<linearGradient id="paint9_linear_413_67" x1="1518" y1="695.5" x2="1518" y2="558" gradientUnits="userSpaceOnUse">
<stop stop-color="#666666" stop-opacity="0"/>
<stop offset="0.49106" stop-color="#6B00C9"/>
<stop offset="0.792736" stop-color="#9C4AE4"/>
<stop offset="1" stop-color="#C17BFF"/>
</linearGradient>
<linearGradient id="paint10_linear_413_67" x1="1518" y1="188.5" x2="1518" y2="568" gradientUnits="userSpaceOnUse">
<stop stop-color="#5E159E"/>
<stop offset="1" stop-color="#350063" stop-opacity="0"/>
</linearGradient>
<linearGradient id="paint11_linear_413_67" x1="1518" y1="652.5" x2="1518" y2="558" gradientUnits="userSpaceOnUse">
<stop stop-color="#666666" stop-opacity="0"/>
<stop offset="0.49106" stop-color="#6B00C9"/>
<stop offset="0.792736" stop-color="#9C4AE4"/>
<stop offset="1" stop-color="#C17BFF"/>
</linearGradient>
</defs>
</svg>
