<svg width="82" height="82" viewBox="0 0 82 82" fill="none" xmlns="http://www.w3.org/2000/svg">
<path d="M68.3334 39.2917C68.3334 56.6078 47.9298 68.2314 42.3795 71.073C41.5017 71.5224 40.4985 71.5224 39.6207 71.073C34.0703 68.2314 13.6667 56.6078 13.6667 39.2917C13.6667 23.9167 26.9107 13.6667 41.0001 13.6667C55.5779 13.6667 68.3334 23.9167 68.3334 39.2917Z" stroke="#F8924B" stroke-width="6.83333"/>
<path d="M30.6479 40.3532L40.2096 50.4181C40.5264 50.7515 40.6847 50.9182 40.8772 50.957C40.9582 50.9734 41.0417 50.9734 41.1227 50.957C41.3151 50.9182 41.4735 50.7515 41.7902 50.4181L51.3519 40.3532C53.3006 38.3019 53.6054 35.1885 52.0916 32.7983C49.5705 28.8176 43.6989 29.015 41.4509 33.1561L41.213 33.5943C41.1212 33.7634 40.8786 33.7634 40.7868 33.5943L40.5489 33.1561C38.3009 29.015 32.4293 28.8176 29.9082 32.7983C28.3944 35.1885 28.6992 38.3019 30.6479 40.3532Z" stroke="#F8924B" stroke-width="6.83333"/>
</svg>
