<svg width="43" height="43" viewBox="0 0 43 43" fill="none" xmlns="http://www.w3.org/2000/svg">
<path d="M7.15407 35.8078C6.17042 35.8078 5.32865 35.4578 4.62876 34.7579C3.92888 34.0581 3.57834 33.2157 3.57715 32.2308V10.7693C3.57715 9.78565 3.92769 8.94388 4.62876 8.244C5.32984 7.54411 6.17161 7.19358 7.15407 7.19238H17.8848L21.4618 10.7693H35.7695C36.7531 10.7693 37.5955 11.1198 38.2966 11.8209C38.9976 12.522 39.3476 13.3638 39.3464 14.3462V32.2308C39.3464 33.2145 38.9964 34.0569 38.2966 34.7579C37.5967 35.459 36.7543 35.809 35.7695 35.8078H7.15407ZM7.15407 32.2308H35.7695V14.3462H19.9863L16.4094 10.7693H7.15407V32.2308Z" fill="#B28EFF"/>
</svg>
