<svg width="36" height="36" viewBox="0 0 36 36" fill="none" xmlns="http://www.w3.org/2000/svg">
<path d="M36 26.2854C36 29.366 33.4914 31.8746 30.4108 31.8746H0V9.73768C0 6.65699 2.50856 4.14844 5.58924 4.14844H36V26.2854Z" fill="white"/>
<path d="M28.1441 6.01886C25.9436 6.01886 24.1392 7.80126 24.1392 10.0237V14.1827H29.7944C29.9265 14.1827 30.0805 14.1827 30.1905 14.2047C31.4668 14.2707 32.413 14.9308 32.413 16.0751C32.413 16.9773 31.7749 17.7475 30.5866 17.9015V17.9455C31.8849 18.0335 32.8751 18.7597 32.8751 19.8819C32.8751 21.0922 31.7749 21.8844 30.3226 21.8844H24.1172V30.0262H29.9925C32.193 30.0262 33.9974 28.2438 33.9974 26.0213V6.01886H28.1441Z" fill="#05A551"/>
<path d="M26.0976 20.6081H28.4081C28.4411 20.6081 28.4962 20.6026 28.5512 20.5971C28.6062 20.5916 28.6612 20.5861 28.6942 20.5861C29.1343 20.4981 29.5084 20.102 29.5084 19.5518C29.5084 19.0237 29.1343 18.6276 28.6942 18.5176C28.6282 18.4956 28.4962 18.4956 28.4081 18.4956H26.0976V20.6081Z" fill="#05A551"/>
<path d="M28.4081 15.3929C28.8482 15.4589 29.2223 15.811 29.2223 16.3391C29.2223 16.8673 28.8482 17.2193 28.4081 17.2854C28.3861 17.3074 28.2541 17.3074 28.1881 17.3074H26.0976V15.3709H28.1881C28.2244 15.3709 28.2741 15.3776 28.3188 15.3836C28.3552 15.3885 28.3884 15.3929 28.4081 15.3929Z" fill="#05A551"/>
<path d="M6.00736 6.01886C3.80687 6.01886 2.00247 7.80126 2.00247 10.0238V19.9039C3.12472 20.4541 4.29098 20.8061 5.45724 20.8061C6.84355 20.8061 7.59172 19.97 7.59172 18.8257V14.1607H11.0245V18.8037C11.0245 20.6081 9.90223 22.0824 6.09538 22.0824C3.78487 22.0824 1.98047 21.5763 1.98047 21.5763V30.0042H7.85577C10.0563 30.0042 11.8607 28.2218 11.8607 25.9993V6.01886H6.00736Z" fill="#0A4EA1"/>
<path d="M17.0762 6.01886C14.8757 6.01886 13.0713 7.80126 13.0713 10.0237V15.2609C14.0835 14.4027 15.8439 13.8526 18.6825 13.9846C20.2009 14.0506 21.8292 14.4687 21.8292 14.4687V16.1631C21.0151 15.745 20.0468 15.3709 18.7926 15.2829C16.6361 15.1289 15.3378 16.1851 15.3378 18.0335C15.3378 19.9039 16.6361 20.9602 18.7926 20.7841C20.0468 20.6961 21.0151 20.3 21.8292 19.9039V21.5983C21.8292 21.5983 20.2229 22.0164 18.6825 22.0824C15.8439 22.2145 14.0835 21.6643 13.0713 20.8061V30.0482H18.9466C21.1471 30.0482 22.9515 28.2658 22.9515 26.0433V6.01886H17.0762Z" fill="#EE1C24"/>
</svg>
