<svg width="36" height="36" viewBox="0 0 36 36" fill="none" xmlns="http://www.w3.org/2000/svg">
<path d="M10.8833 31.8522V30.0007C10.8941 29.845 10.8716 29.6887 10.8173 29.5423C10.763 29.396 10.6782 29.2629 10.5684 29.1519C10.4586 29.0409 10.3264 28.9547 10.1806 28.8988C10.0348 28.843 9.87882 28.8189 9.72299 28.8281C9.51904 28.8148 9.31527 28.8565 9.13291 28.9487C8.95055 29.041 8.79626 29.1805 8.68615 29.3527C8.5858 29.1856 8.44226 29.0487 8.27065 28.9564C8.09903 28.8641 7.90569 28.8197 7.71099 28.8281C7.54129 28.8195 7.37229 28.8555 7.22075 28.9323C7.0692 29.0092 6.94036 29.1243 6.84697 29.2663V28.9021H6.20508V31.8522H6.85312V30.2167C6.8391 30.1158 6.84761 30.013 6.87803 29.9158C6.90846 29.8186 6.96004 29.7293 7.02908 29.6543C7.09812 29.5794 7.1829 29.5207 7.27732 29.4824C7.37175 29.4441 7.47348 29.4272 7.57521 29.433C8.00106 29.433 8.2171 29.7107 8.2171 30.2106V31.8522H8.86515V30.2167C8.85218 30.116 8.86143 30.0136 8.89224 29.9169C8.92305 29.8201 8.97469 29.7312 9.0435 29.6565C9.11232 29.5818 9.19666 29.5231 9.2906 29.4845C9.38453 29.4459 9.48578 29.4283 9.58724 29.433C10.0254 29.433 10.2352 29.7107 10.2352 30.2106V31.8522H10.8833ZM14.4999 30.3771V28.9021H13.858V29.2601C13.7485 29.1189 13.6067 29.006 13.4446 28.9308C13.2824 28.8557 13.1046 28.8204 12.9261 28.8281C12.5284 28.8476 12.1534 29.0193 11.8788 29.3077C11.6042 29.5961 11.4511 29.979 11.4511 30.3772C11.4511 30.7754 11.6042 31.1583 11.8788 31.4467C12.1534 31.7351 12.5284 31.9068 12.9261 31.9263C13.1046 31.934 13.2824 31.8987 13.4446 31.8235C13.6067 31.7484 13.7485 31.6355 13.858 31.4943V31.8522H14.4999V30.3771ZM12.1115 30.3771C12.1214 30.2031 12.1821 30.0357 12.2861 29.8957C12.39 29.7557 12.5327 29.6492 12.6964 29.5893C12.8602 29.5294 13.0379 29.5187 13.2076 29.5586C13.3773 29.5985 13.5317 29.6872 13.6516 29.8138C13.7716 29.9403 13.8518 30.0992 13.8826 30.2709C13.9133 30.4425 13.8931 30.6194 13.8245 30.7797C13.7559 30.94 13.6418 31.0767 13.4965 31.1729C13.3511 31.2692 13.1807 31.3208 13.0063 31.3214C12.8841 31.3231 12.7629 31.2994 12.6503 31.2519C12.5377 31.2043 12.4362 31.134 12.3521 31.0453C12.268 30.9566 12.2032 30.8514 12.1618 30.7364C12.1204 30.6214 12.1033 30.4991 12.1115 30.3771ZM28.2342 28.8246C28.451 28.8225 28.666 28.8628 28.8673 28.9432C29.0549 29.0181 29.226 29.129 29.3709 29.2698C29.5135 29.4097 29.6267 29.5767 29.7036 29.7611C29.8639 30.1562 29.8639 30.5982 29.7036 30.9932C29.6267 31.1776 29.5136 31.3448 29.3709 31.4847C29.226 31.6254 29.0549 31.7363 28.8673 31.8111C28.4601 31.9694 28.0084 31.9694 27.6012 31.8111C27.4139 31.7365 27.2432 31.6256 27.099 31.4847C26.9572 31.3444 26.8447 31.1773 26.7679 30.9932C26.6077 30.5981 26.6077 30.1562 26.7679 29.7611C26.8447 29.577 26.9573 29.41 27.099 29.2698C27.2432 29.1288 27.4139 29.0179 27.6012 28.9432C27.8024 28.8628 28.0175 28.8225 28.2342 28.8246V28.8246ZM28.2342 29.4315C28.1087 29.4304 27.9842 29.4539 27.8677 29.5008C27.758 29.5449 27.6584 29.6109 27.5751 29.6948C27.4912 29.7806 27.4252 29.8822 27.381 29.9937C27.2865 30.2407 27.2865 30.5138 27.381 30.7608C27.4252 30.8723 27.4912 30.9738 27.5751 31.0596C27.6584 31.1435 27.7579 31.2096 27.8677 31.2536C28.1033 31.3461 28.3652 31.3461 28.6008 31.2536C28.7109 31.2093 28.8109 31.1433 28.895 31.0596C28.9796 30.9741 29.0462 30.8725 29.0907 30.7608C29.1851 30.5138 29.1851 30.2407 29.0907 29.9937C29.0462 29.882 28.9796 29.7803 28.895 29.6948C28.8109 29.6111 28.7109 29.5451 28.6008 29.5008C28.4843 29.4539 28.3598 29.4304 28.2342 29.4315V29.4315ZM17.9926 30.3771C17.9864 29.4576 17.4186 28.8281 16.5916 28.8281C16.1913 28.8491 15.8147 29.0243 15.5408 29.317C15.2669 29.6097 15.117 29.9971 15.1226 30.398C15.1281 30.7988 15.2888 31.1819 15.5707 31.4668C15.8527 31.7518 16.2341 31.9165 16.6348 31.9263C17.0751 31.9418 17.5057 31.7946 17.8445 31.5128L17.5297 31.0376C17.286 31.2329 16.9841 31.3414 16.6718 31.3461C16.4597 31.364 16.249 31.2986 16.0843 31.1638C15.9196 31.029 15.8138 30.8355 15.7892 30.624H17.9802C17.9864 30.5438 17.9926 30.4636 17.9926 30.3771ZM15.7954 30.118C15.8067 29.9199 15.895 29.7341 16.0415 29.6003C16.188 29.4666 16.381 29.3954 16.5792 29.4021C16.7731 29.3983 16.9606 29.4715 17.1006 29.6057C17.2405 29.7399 17.3216 29.9241 17.3261 30.118H15.7954ZM20.6957 29.6551C20.4156 29.494 20.0991 29.4069 19.7761 29.4021C19.4243 29.4021 19.2145 29.5317 19.2145 29.7477C19.2145 29.9452 19.4366 30.0007 19.7144 30.0377L20.0168 30.0809C20.6587 30.1735 21.0474 30.445 21.0474 30.9635C21.0474 31.5251 20.5537 31.9263 19.702 31.9263C19.2462 31.9389 18.7983 31.8048 18.4245 31.5436L18.7269 31.0437C19.0101 31.2538 19.3557 31.3625 19.7082 31.3523C20.1464 31.3523 20.3809 31.2228 20.3809 30.9943C20.3809 30.8277 20.2143 30.7351 19.8625 30.6858L19.5601 30.6426C18.8997 30.55 18.5418 30.2538 18.5418 29.7723C18.5418 29.186 19.0231 28.8281 19.7699 28.8281C20.1924 28.8135 20.6101 28.9206 20.9734 29.1367L20.6957 29.6551ZM23.7798 29.4885H22.7307V30.8216C22.7307 31.1178 22.8356 31.3153 23.1565 31.3153C23.3568 31.3087 23.5522 31.2513 23.7243 31.1487L23.9095 31.698C23.6688 31.848 23.3907 31.9272 23.1071 31.9263C22.348 31.9263 22.0827 31.519 22.0827 30.8339V29.4885H21.484V28.9021H22.0827L22.0825 28.0073H22.7305L22.7307 28.9021H23.7798V29.4885ZM26.0012 28.8281C26.1569 28.8287 26.3114 28.8558 26.4579 28.9083L26.2604 29.5132C26.1329 29.4624 25.9966 29.4372 25.8593 29.4391C25.4396 29.4391 25.2297 29.7107 25.2297 30.1982V31.8522H24.5879V28.9021H25.2236V29.2601C25.3023 29.1248 25.4161 29.0132 25.553 28.9372C25.6899 28.8611 25.8447 28.8234 26.0012 28.8281V28.8281ZM30.4448 31.4228C30.4848 31.4225 30.5243 31.4304 30.5611 31.4458C30.5965 31.4606 30.6287 31.482 30.6561 31.5088C30.6833 31.5356 30.705 31.5673 30.7201 31.6024C30.7355 31.6383 30.7435 31.6771 30.7435 31.7163C30.7435 31.7554 30.7355 31.7942 30.7201 31.8301C30.7049 31.865 30.6832 31.8966 30.6561 31.9233C30.6286 31.9501 30.5964 31.9716 30.5611 31.9866C30.5244 32.0023 30.4848 32.0103 30.4448 32.01C30.386 32.0106 30.3284 31.9939 30.279 31.9619C30.2297 31.9299 30.1909 31.8841 30.1674 31.8301C30.152 31.7941 30.1441 31.7554 30.1441 31.7163C30.1441 31.6771 30.152 31.6384 30.1674 31.6024C30.1825 31.5674 30.2041 31.5356 30.2312 31.5088C30.2585 31.4818 30.2909 31.4604 30.3265 31.4458C30.364 31.4303 30.4042 31.4225 30.4448 31.4228V31.4228ZM30.4448 31.9453C30.4753 31.9455 30.5055 31.9394 30.5334 31.9273C30.5602 31.9156 30.5846 31.899 30.6053 31.8783C30.6318 31.8519 30.6515 31.8193 30.6624 31.7836C30.6734 31.7478 30.6755 31.7098 30.6684 31.673C30.6613 31.6363 30.6453 31.6018 30.6217 31.5727C30.5982 31.5435 30.5679 31.5206 30.5334 31.506C30.5054 31.494 30.4753 31.488 30.4448 31.4883C30.4139 31.488 30.3831 31.4941 30.3545 31.506C30.3273 31.5172 30.3024 31.5337 30.2815 31.5544C30.2388 31.5975 30.2149 31.6557 30.2149 31.7164C30.2149 31.777 30.2388 31.8353 30.2815 31.8783C30.303 31.8997 30.3285 31.9166 30.3565 31.9281C30.3845 31.9396 30.4145 31.9454 30.4448 31.9453V31.9453ZM30.4621 31.5789C30.491 31.577 30.5197 31.5853 30.5431 31.6024C30.5525 31.6101 30.5599 31.6198 30.5648 31.6309C30.5697 31.6419 30.572 31.654 30.5715 31.666C30.5718 31.6764 30.57 31.6867 30.5661 31.6963C30.5622 31.7059 30.5563 31.7146 30.5489 31.7218C30.531 31.7377 30.5083 31.7472 30.4844 31.7488L30.5737 31.8517H30.5039L30.4211 31.7495H30.3945V31.8517H30.3362V31.5789H30.4621ZM30.3945 31.6301V31.7028H30.4614C30.4743 31.7034 30.4871 31.7002 30.4982 31.6937C30.5027 31.6907 30.5063 31.6866 30.5087 31.6817C30.5111 31.6768 30.5121 31.6714 30.5118 31.666C30.5121 31.6607 30.511 31.6554 30.5086 31.6507C30.5062 31.646 30.5026 31.6419 30.4982 31.639C30.487 31.6325 30.4743 31.6294 30.4614 31.6301H30.3945Z" fill="black"/>
<path d="M22.8674 6.38638H13.1328V23.8797H22.8674V6.38638Z" fill="#7375CF"/>
<path d="M13.7511 15.133C13.7496 13.4483 14.1313 11.7853 14.8675 10.2699C15.6037 8.75456 16.675 7.42653 18.0003 6.38639C16.3591 5.09637 14.3881 4.29412 12.3125 4.07135C10.2369 3.84858 8.1405 4.21426 6.26292 5.12661C4.38534 6.03896 2.80234 7.46115 1.69483 9.23064C0.58732 11.0001 0 13.0455 0 15.133C0 17.2205 0.58732 19.2659 1.69483 21.0354C2.80234 22.8049 4.38534 24.2271 6.26292 25.1394C8.1405 26.0518 10.2369 26.4175 12.3125 26.1947C14.3881 25.9719 16.3591 25.1697 18.0003 23.8797C16.675 22.8395 15.6037 21.5115 14.8675 19.9961C14.1313 18.4808 13.7496 16.8178 13.7511 15.133V15.133Z" fill="#EB001B"/>
<path d="M34.9382 22.0269V21.6688H35.0826V21.5958H34.7148V21.6688H34.8593V22.0269H34.9382ZM35.6522 22.0269V21.5951H35.5395L35.4098 21.8921L35.2801 21.5951H35.1673V22.0269H35.2469V21.7012L35.3685 21.982H35.4511L35.5727 21.7005V22.0269H35.6522Z" fill="#00A2E5"/>
<path d="M35.9997 15.133C35.9998 17.2205 35.4125 19.2659 34.3051 21.0354C33.1976 22.8049 31.6147 24.2271 29.7371 25.1394C27.8596 26.0518 25.7633 26.4175 23.6877 26.1947C21.6122 25.9719 19.6412 25.1697 18 23.8797C19.3241 22.8385 20.3946 21.5102 21.1306 19.9951C21.8667 18.48 22.2491 16.8175 22.2491 15.133C22.2491 13.4486 21.8667 11.7861 21.1306 10.271C20.3946 8.75582 19.3241 7.42758 18 6.38638C19.6412 5.09636 21.6122 4.29412 23.6877 4.07135C25.7633 3.84858 27.8596 4.21427 29.7371 5.12663C31.6147 6.03898 33.1976 7.46118 34.3051 9.23068C35.4125 11.0002 35.9998 13.0455 35.9997 15.133V15.133Z" fill="#00A2E5"/>
</svg>
