<svg width="36" height="36" viewBox="0 0 36 36" fill="none" xmlns="http://www.w3.org/2000/svg">
<path d="M6.54855 31.8518V29.9978C6.55943 29.8418 6.53693 29.6854 6.48256 29.5388C6.4282 29.3923 6.34321 29.259 6.23327 29.1479C6.12332 29.0368 5.99095 28.9504 5.84499 28.8945C5.69902 28.8386 5.54281 28.8144 5.38678 28.8236C5.18256 28.8103 4.97851 28.852 4.79591 28.9444C4.6133 29.0368 4.45882 29.1765 4.34857 29.3489C4.24809 29.1816 4.10436 29.0446 3.93253 28.9521C3.76069 28.8597 3.5671 28.8153 3.37216 28.8236C3.20223 28.8151 3.03301 28.8511 2.88126 28.928C2.72951 29.005 2.6005 29.1203 2.50699 29.2624V28.8978H1.86426V31.8518H2.51313V30.2141C2.4991 30.113 2.50763 30.0101 2.5381 29.9127C2.56856 29.8154 2.62021 29.726 2.68934 29.6509C2.75847 29.5759 2.84335 29.5171 2.9379 29.4788C3.03245 29.4404 3.13432 29.4235 3.23618 29.4293C3.66259 29.4293 3.87891 29.7073 3.87891 30.2079V31.8518H4.52779V30.2141C4.51481 30.1132 4.52407 30.0107 4.55493 29.9138C4.58579 29.8169 4.63748 29.7279 4.70639 29.6531C4.7753 29.5783 4.85975 29.5195 4.9538 29.4809C5.04786 29.4422 5.14924 29.4246 5.25083 29.4293C5.68957 29.4293 5.89968 29.7073 5.89968 30.2079V31.8518H6.54855ZM16.152 28.8978H15.1014V28.0017H14.4526V28.8978H13.8531V29.4849H14.4526V30.8321C14.4526 31.518 14.7183 31.9259 15.4784 31.9259C15.7624 31.9268 16.0408 31.8475 16.2818 31.6972L16.0964 31.1472C15.924 31.2501 15.7284 31.3075 15.5278 31.3141C15.2065 31.3141 15.1014 31.1163 15.1014 30.8197V29.4849H16.152V28.8978ZM21.6335 28.8236C21.4768 28.819 21.3217 28.8568 21.1847 28.9329C21.0477 29.009 20.9337 29.1207 20.8548 29.2562V28.8978H20.2183V31.8518H20.861V30.1955C20.861 29.7073 21.0711 29.4354 21.4914 29.4354C21.6288 29.4335 21.7653 29.4587 21.893 29.5096L22.0908 28.904C21.944 28.8514 21.7894 28.8243 21.6335 28.8236ZM13.3464 29.1326C12.9826 28.9163 12.5643 28.8091 12.1413 28.8236C11.3935 28.8236 10.9115 29.1821 10.9115 29.7691C10.9115 30.2512 11.2699 30.5478 11.9312 30.6405L12.234 30.6837C12.5862 30.7331 12.7531 30.8259 12.7531 30.9927C12.7531 31.2214 12.5182 31.3512 12.0795 31.3512C11.7266 31.3613 11.3805 31.2525 11.0969 31.0421L10.7941 31.5427C11.1685 31.8042 11.6169 31.9385 12.0733 31.9259C12.9261 31.9259 13.4205 31.5242 13.4205 30.9618C13.4205 30.4427 13.0312 30.1708 12.3885 30.0781L12.0857 30.0348C11.8076 29.9978 11.5851 29.9422 11.5851 29.7445C11.5851 29.5281 11.7952 29.3983 12.1475 29.3983C12.4709 29.4032 12.7878 29.4904 13.0683 29.6517L13.3464 29.1326ZM30.5633 28.8236C30.4066 28.819 30.2515 28.8568 30.1145 28.9329C29.9775 29.009 29.8635 29.1207 29.7847 29.2562V28.8978H29.1481V31.8518H29.7908V30.1955C29.7908 29.7073 30.0009 29.4354 30.4211 29.4354C30.5586 29.4335 30.6951 29.4587 30.8229 29.5096L31.0206 28.904C30.8738 28.8514 30.7192 28.8243 30.5633 28.8236ZM22.2823 30.3747C22.2738 30.5828 22.3089 30.7904 22.3854 30.9841C22.4619 31.1778 22.5781 31.3534 22.7266 31.4995C22.875 31.6456 23.0524 31.759 23.2473 31.8325C23.4422 31.9059 23.6503 31.9377 23.8582 31.9259C24.2441 31.9453 24.6232 31.8196 24.9211 31.5736L24.6122 31.0545C24.39 31.2239 24.119 31.3171 23.8397 31.3202C23.5988 31.3056 23.3726 31.1997 23.2073 31.0239C23.0419 30.8482 22.9498 30.616 22.9498 30.3747C22.9498 30.1335 23.0419 29.9013 23.2073 29.7256C23.3726 29.5498 23.5988 29.4439 23.8397 29.4293C24.1191 29.4324 24.39 29.5256 24.6122 29.695L24.9211 29.1759C24.6232 28.9299 24.2441 28.8043 23.8582 28.8236C23.6503 28.8118 23.4422 28.8436 23.2473 28.9171C23.0524 28.9905 22.875 29.1039 22.7266 29.25C22.5782 29.3961 22.462 29.5716 22.3854 29.7653C22.3089 29.959 22.2738 30.1666 22.2823 30.3747ZM28.3015 30.3747V28.8978H27.6588V29.2562C27.5491 29.1148 27.4071 29.0018 27.2448 28.9265C27.0824 28.8513 26.9044 28.816 26.7256 28.8236C26.3274 28.8432 25.9519 29.0151 25.677 29.3039C25.402 29.5926 25.2487 29.9761 25.2487 30.3748C25.2487 30.7735 25.402 31.1569 25.677 31.4457C25.9519 31.7345 26.3274 31.9064 26.7256 31.9259C26.9044 31.9335 27.0824 31.8983 27.2448 31.823C27.4071 31.7477 27.5491 31.6347 27.6588 31.4933V31.8518H28.3015V30.3747ZM25.9099 30.3747C25.9199 30.2004 25.9806 30.0328 26.0847 29.8926C26.1888 29.7524 26.3316 29.6458 26.4956 29.5858C26.6595 29.5258 26.8375 29.5151 27.0075 29.5551C27.1774 29.595 27.332 29.6838 27.4521 29.8105C27.5722 29.9372 27.6526 30.0964 27.6833 30.2682C27.7141 30.4401 27.6939 30.6172 27.6252 30.7777C27.5565 30.9382 27.4423 31.0751 27.2968 31.1715C27.1512 31.2679 26.9806 31.3196 26.806 31.3202C26.6836 31.3219 26.5622 31.2982 26.4495 31.2506C26.3367 31.203 26.235 31.1326 26.1508 31.0438C26.0666 30.9549 26.0018 30.8496 25.9603 30.7345C25.9188 30.6193 25.9017 30.4968 25.9099 30.3747ZM18.1543 28.8236C17.7535 28.8447 17.3764 29.0202 17.1022 29.3133C16.828 29.6064 16.678 29.9943 16.6836 30.3956C16.6892 30.7969 16.85 31.1805 17.1322 31.4658C17.4145 31.7511 17.7963 31.916 18.1975 31.9259C18.6384 31.9414 19.0696 31.794 19.4088 31.5118L19.0936 31.036C18.8495 31.2316 18.5473 31.3403 18.2346 31.345C18.0222 31.3628 17.8112 31.2974 17.6463 31.1624C17.4814 31.0274 17.3754 30.8336 17.3509 30.6219H19.5447C19.5509 30.5416 19.5571 30.4613 19.5571 30.3747C19.5509 29.454 18.9824 28.8236 18.1543 28.8236ZM18.1419 29.3983C18.336 29.3946 18.5237 29.4679 18.6639 29.6023C18.804 29.7366 18.8852 29.9211 18.8896 30.1152H17.3571C17.3683 29.9169 17.4568 29.7309 17.6034 29.5969C17.7501 29.4629 17.9434 29.3917 18.1419 29.3983ZM34.265 30.3747V27.7113H33.6223V29.2562C33.5126 29.1149 33.3706 29.0018 33.2083 28.9265C33.0459 28.8513 32.8679 28.816 32.6892 28.8236C32.2909 28.8431 31.9154 29.0151 31.6405 29.3038C31.3655 29.5926 31.2121 29.9761 31.2121 30.3748C31.2121 30.7735 31.3655 31.157 31.6405 31.4457C31.9154 31.7345 32.2909 31.9064 32.6892 31.9259C32.8679 31.9335 33.0459 31.8983 33.2083 31.823C33.3706 31.7477 33.5126 31.6347 33.6223 31.4933V31.8518H34.265V30.3747ZM35.3364 31.4236C35.3763 31.4234 35.4158 31.4312 35.4526 31.4467C35.488 31.4615 35.5202 31.4828 35.5476 31.5097C35.5748 31.5364 35.5965 31.5682 35.6116 31.6032C35.6271 31.6392 35.635 31.6779 35.635 31.7171C35.635 31.7563 35.6271 31.795 35.6116 31.831C35.5964 31.8658 35.5747 31.8975 35.5476 31.9242C35.5202 31.951 35.4879 31.9724 35.4526 31.9874C35.4159 32.0032 35.3763 32.0111 35.3364 32.0109C35.2776 32.0115 35.2199 31.9947 35.1706 31.9627C35.1212 31.9307 35.0824 31.8849 35.059 31.831C35.0436 31.795 35.0356 31.7562 35.0356 31.7171C35.0356 31.6779 35.0436 31.6392 35.059 31.6032C35.074 31.5682 35.0957 31.5365 35.1227 31.5097C35.15 31.4826 35.1824 31.4612 35.218 31.4467C35.2555 31.4312 35.2958 31.4233 35.3364 31.4236ZM35.3364 31.9461C35.3668 31.9463 35.397 31.9402 35.4249 31.9281C35.4518 31.9165 35.4762 31.8999 35.4968 31.8792C35.5395 31.8361 35.5635 31.7779 35.5635 31.7172C35.5635 31.6566 35.5395 31.5984 35.4968 31.5553C35.4762 31.5347 35.4518 31.5182 35.4249 31.5068C35.3969 31.4949 35.3668 31.4889 35.3364 31.4891C35.3054 31.4889 35.2747 31.4949 35.2461 31.5068C35.2188 31.518 35.194 31.5345 35.173 31.5553C35.1304 31.5984 35.1064 31.6566 35.1064 31.7172C35.1064 31.7779 35.1304 31.8361 35.173 31.8792C35.194 31.9 35.2188 31.9166 35.2461 31.9281C35.2746 31.9402 35.3053 31.9463 35.3364 31.9461ZM35.3536 31.5798C35.3825 31.5779 35.4112 31.5862 35.4346 31.6032C35.444 31.6109 35.4514 31.6207 35.4563 31.6317C35.4613 31.6428 35.4636 31.6548 35.463 31.6669C35.4634 31.6772 35.4615 31.6876 35.4576 31.6972C35.4537 31.7067 35.4478 31.7154 35.4404 31.7226C35.4225 31.7385 35.3998 31.748 35.3759 31.7496L35.4652 31.8525H35.3954L35.3127 31.7503H35.286V31.8525H35.2277V31.5798H35.3536ZM35.286 31.6309V31.7036H35.353C35.3658 31.7042 35.3786 31.7011 35.3897 31.6946C35.3942 31.6915 35.3978 31.6874 35.4002 31.6826C35.4026 31.6777 35.4037 31.6723 35.4033 31.6669C35.4036 31.6616 35.4025 31.6563 35.4001 31.6515C35.3977 31.6468 35.3941 31.6428 35.3897 31.6399C35.3786 31.6334 35.3658 31.6303 35.353 31.6309H35.286ZM31.8734 30.3747C31.8834 30.2004 31.9442 30.0328 32.0483 29.8927C32.1523 29.7525 32.2952 29.6458 32.4591 29.5859C32.6231 29.5259 32.801 29.5152 32.971 29.5552C33.141 29.5951 33.2955 29.6839 33.4156 29.8106C33.5357 29.9373 33.6161 30.0964 33.6468 30.2683C33.6776 30.4402 33.6573 30.6173 33.5886 30.7778C33.5199 30.9383 33.4058 31.0752 33.2602 31.1716C33.1147 31.268 32.9441 31.3196 32.7695 31.3202C32.6471 31.3219 32.5257 31.2982 32.413 31.2506C32.3002 31.203 32.1985 31.1326 32.1144 31.0437C32.0302 30.9549 31.9653 30.8496 31.9238 30.7344C31.8824 30.6193 31.8652 30.4968 31.8734 30.3747ZM10.1699 30.3747V28.8978H9.52722V29.2562C9.41751 29.1148 9.27556 29.0018 9.11321 28.9265C8.95086 28.8513 8.77285 28.816 8.59406 28.8236C8.19583 28.8432 7.82036 29.0151 7.54541 29.3039C7.27047 29.5926 7.11712 29.9761 7.11712 30.3748C7.11712 30.7735 7.27047 31.1569 7.54541 31.4457C7.82036 31.7345 8.19583 31.9064 8.59406 31.9259C8.77285 31.9335 8.95086 31.8983 9.11321 31.823C9.27556 31.7477 9.41752 31.6347 9.52722 31.4933V31.8518H10.1699V30.3747ZM7.77837 30.3747C7.78836 30.2004 7.84914 30.0328 7.95321 29.8927C8.05729 29.7525 8.20012 29.6458 8.36408 29.5859C8.52805 29.5259 8.70598 29.5152 8.87594 29.5552C9.04589 29.5951 9.20045 29.6839 9.32054 29.8106C9.44063 29.9373 9.52101 30.0965 9.55176 30.2683C9.58251 30.4402 9.56228 30.6173 9.49359 30.7778C9.42489 30.9383 9.31072 31.0752 9.16515 31.1716C9.01959 31.268 8.849 31.3196 8.67442 31.3202C8.55204 31.3219 8.43065 31.2982 8.3179 31.2506C8.20515 31.203 8.10348 31.1326 8.0193 31.0437C7.93511 30.9549 7.87025 30.8496 7.82878 30.7344C7.78732 30.6193 7.77015 30.4968 7.77837 30.3747Z" fill="#231F20"/>
<path d="M22.8673 6.38577H13.1328V23.879H22.8673V6.38577Z" fill="#FF5F00"/>
<path d="M13.7511 15.133C13.7495 13.4483 14.1313 11.7853 14.8675 10.2699C15.6036 8.75455 16.6749 7.42652 18.0002 6.38638C16.359 5.09636 14.388 4.29412 12.3124 4.07135C10.2369 3.84858 8.14048 4.21426 6.26291 5.12661C4.38534 6.03895 2.80233 7.46114 1.69482 9.23063C0.587319 11.0001 0 13.0455 0 15.133C0 17.2205 0.587319 19.2659 1.69482 21.0354C2.80233 22.8049 4.38534 24.227 6.26291 25.1394C8.14048 26.0517 10.2369 26.4174 12.3124 26.1946C14.388 25.9719 16.359 25.1696 18.0002 23.8796C16.6749 22.8395 15.6037 21.5114 14.8675 19.9961C14.1313 18.4807 13.7495 16.8177 13.7511 15.133Z" fill="#EB001B"/>
<path d="M35.9997 15.133C35.9997 17.2205 35.4125 19.2658 34.3051 21.0353C33.1976 22.8048 31.6147 24.227 29.7371 25.1394C27.8596 26.0517 25.7632 26.4174 23.6877 26.1946C21.6121 25.9719 19.6411 25.1696 18 23.8796C19.3241 22.8384 20.3946 21.5102 21.1306 19.995C21.8667 18.4799 22.2491 16.8174 22.2491 15.133C22.2491 13.4485 21.8667 11.7861 21.1306 10.2709C20.3946 8.75581 19.3241 7.42757 18 6.38638C19.6411 5.09636 21.6121 4.29412 23.6877 4.07135C25.7632 3.84858 27.8596 4.21427 29.7371 5.12662C31.6147 6.03898 33.1976 7.46117 34.3051 9.23066C35.4125 11.0001 35.9997 13.0455 35.9997 15.133Z" fill="#F79E1B"/>
<path d="M34.9382 22.0265V21.6683H35.0826V21.5954H34.7148V21.6683H34.8593V22.0265H34.9382ZM35.6522 22.0265V21.5946H35.5395L35.4098 21.8917L35.2801 21.5946H35.1673V22.0265H35.2469V21.7007L35.3685 21.9815H35.4511L35.5727 21.7V22.0265H35.6522Z" fill="#F79E1B"/>
</svg>
