<svg width="36" height="36" viewBox="0 0 36 36" fill="none" xmlns="http://www.w3.org/2000/svg">
<path d="M24.2926 13.2191H21.4921C21.3009 13.2191 21.138 13.3584 21.1081 13.5475L19.9756 20.7277C19.9531 20.8694 20.0628 20.9971 20.2057 20.9971H21.6428C21.7763 20.9971 21.8905 20.8997 21.9114 20.767L22.2328 18.7317C22.2623 18.5422 22.4256 18.403 22.6168 18.403H23.5029C25.3478 18.403 26.4119 17.5104 26.6903 15.7417C26.816 14.9678 26.6952 14.3598 26.3329 13.934C25.9353 13.4664 25.2298 13.2191 24.2926 13.2191ZM24.6157 15.8416C24.463 16.8463 23.6953 16.8463 22.9526 16.8463H22.5305L22.8273 14.9699C22.8449 14.8565 22.9423 14.7729 23.0574 14.7729H23.2511C23.7563 14.7729 24.2337 14.7729 24.4802 15.0612C24.6272 15.2331 24.6718 15.4886 24.6157 15.8416Z" fill="#179BD7"/>
<path d="M32.6626 15.8092H31.3225C31.2075 15.8092 31.1096 15.8928 31.0924 16.0062L31.0331 16.3812L30.9389 16.2453C30.6486 15.824 30.0017 15.6831 29.3556 15.6831C27.8739 15.6831 26.6087 16.8054 26.3623 18.3797C26.2345 19.1649 26.4159 19.9158 26.8614 20.4395C27.2708 20.921 27.8546 21.1216 28.5503 21.1216C29.7442 21.1216 30.4062 20.3539 30.4062 20.3539L30.3464 20.7265C30.3239 20.869 30.4337 20.9967 30.5774 20.9967H31.7848C31.976 20.9967 32.1389 20.8575 32.1688 20.668L32.8939 16.0786C32.916 15.9374 32.8063 15.8092 32.6626 15.8092ZM30.7936 18.419C30.665 19.185 30.0562 19.6993 29.2807 19.6993C28.8921 19.6993 28.5802 19.5744 28.3804 19.3377C28.1822 19.1027 28.1077 18.7682 28.1699 18.3956C28.2915 17.6361 28.9089 17.1051 29.6725 17.1051C30.0533 17.1051 30.3628 17.2316 30.5667 17.4703C30.7719 17.7115 30.8529 18.048 30.7936 18.419Z" fill="#179BD7"/>
<path d="M34.243 13.4161L33.0938 20.7277C33.0712 20.8694 33.181 20.9971 33.3239 20.9971H34.4793C34.6713 20.9971 34.8343 20.8579 34.8637 20.6684L35.997 13.4886C36.0196 13.3469 35.9098 13.2188 35.7669 13.2188H34.4731C34.3589 13.2192 34.2606 13.3027 34.243 13.4161Z" fill="#179BD7"/>
<path d="M4.31999 13.2191H1.51989C1.32827 13.2191 1.16532 13.3584 1.13543 13.5475L0.00293957 20.7277C-0.0195792 20.8694 0.0901483 20.9971 0.233859 20.9971H1.57065C1.76227 20.9971 1.92522 20.8579 1.95511 20.6684L2.26055 18.7317C2.29003 18.5422 2.45339 18.403 2.6446 18.403H3.53102C5.37551 18.403 6.44003 17.5104 6.71804 15.7417C6.84332 14.9678 6.72336 14.3598 6.36101 13.934C5.96304 13.4664 5.25718 13.2191 4.31999 13.2191ZM4.64303 15.8416C4.48991 16.8463 3.72222 16.8463 2.97992 16.8463H2.55739L2.85382 14.9699C2.87142 14.8565 2.96969 14.7729 3.08433 14.7729H3.27799C3.78364 14.7729 4.26062 14.7729 4.5071 15.0612C4.65409 15.2331 4.69913 15.4886 4.64303 15.8416Z" fill="#253B80"/>
<path d="M12.6897 15.8093H11.3489C11.2346 15.8093 11.136 15.8928 11.1183 16.0062L11.059 16.3812L10.9652 16.2453C10.6749 15.824 10.0276 15.6832 9.38154 15.6832C7.8998 15.6832 6.63425 16.8054 6.38777 18.3797C6.25962 19.165 6.44181 19.9159 6.88728 20.4395C7.29589 20.921 7.88056 21.1217 8.57618 21.1217C9.77009 21.1217 10.4321 20.354 10.4321 20.354L10.3724 20.7266C10.3498 20.869 10.4596 20.9968 10.6025 20.9968H11.8103C12.0023 20.9968 12.1644 20.8576 12.1947 20.668L12.9194 16.0787C12.9424 15.9374 12.8331 15.8093 12.6897 15.8093ZM10.8207 18.419C10.6913 19.185 10.0833 19.6993 9.30784 19.6993C8.91847 19.6993 8.6073 19.5744 8.4075 19.3378C8.20933 19.1027 8.134 18.7682 8.19705 18.3957C8.31783 17.6362 8.93608 17.1051 9.69967 17.1051C10.0804 17.1051 10.39 17.2316 10.5939 17.4703C10.7982 17.7115 10.8792 18.048 10.8207 18.419Z" fill="#253B80"/>
<path d="M19.8314 15.8092H18.4839C18.3554 15.8092 18.2346 15.8731 18.1617 15.9799L16.3033 18.7174L15.5155 16.0868C15.466 15.9222 15.3141 15.8092 15.1421 15.8092H13.818C13.6571 15.8092 13.5453 15.9664 13.5965 16.1179L15.0807 20.4735L13.6854 22.4432C13.5756 22.5984 13.6862 22.8117 13.8758 22.8117H15.2216C15.3493 22.8117 15.4689 22.7495 15.5413 22.6447L20.023 16.1756C20.1302 16.0209 20.0201 15.8092 19.8314 15.8092Z" fill="#253B80"/>
</svg>
