<svg width="82" height="82" viewBox="0 0 82 82" fill="none" xmlns="http://www.w3.org/2000/svg">
<circle cx="40.9999" cy="27.3333" r="10.25" stroke="#1A58E3" stroke-width="6.83333" stroke-linecap="round"/>
<path d="M52.1654 27.3333C53.0716 25.7638 54.5641 24.6186 56.3147 24.1495C58.0652 23.6804 59.9304 23.926 61.4999 24.8322C63.0694 25.7383 64.2147 27.2308 64.6837 28.9814C65.1528 30.732 64.9072 32.5972 64.0011 34.1667C63.0949 35.7362 61.6024 36.8814 59.8518 37.3505C58.1013 37.8196 56.2361 37.574 54.6666 36.6678C53.0971 35.7617 51.9518 34.2692 51.4828 32.5186C51.0137 30.768 51.2593 28.9028 52.1654 27.3333L52.1654 27.3333Z" stroke="#1A58E3" stroke-width="6.83333"/>
<path d="M17.9989 27.3333C18.9051 25.7638 20.3976 24.6186 22.1482 24.1495C23.8987 23.6804 25.7639 23.926 27.3334 24.8322C28.9029 25.7383 30.0482 27.2308 30.5172 28.9814C30.9863 30.732 30.7407 32.5972 29.8346 34.1667C28.9284 35.7362 27.4359 36.8814 25.6853 37.3505C23.9348 37.8196 22.0696 37.574 20.5001 36.6678C18.9306 35.7617 17.7853 34.2692 17.3163 32.5186C16.8472 30.768 17.0928 28.9028 17.9989 27.3333L17.9989 27.3333Z" stroke="#1A58E3" stroke-width="6.83333"/>
<path d="M58.0837 47.8334L58.0838 44.4167H58.0837V47.8334ZM70.7937 57.7562L74.0139 56.6143L74.0138 56.6141L70.7937 57.7562ZM57.6785 61.5004L54.329 62.1749L54.8813 64.917H57.6785V61.5004ZM50.5017 50.2621L48.4351 47.5413L44.4839 50.5425L48.6971 53.1633L50.5017 50.2621ZM58.0837 47.8334L58.0837 51.25C63.692 51.2502 66.2921 55.2855 67.5736 58.8984L70.7937 57.7562L74.0138 56.6141C72.425 52.1348 68.1578 44.4169 58.0838 44.4167L58.0837 47.8334ZM70.7937 57.7562L67.5735 58.8981C67.5495 58.8304 67.5273 58.7021 67.5557 58.5462C67.5826 58.3986 67.6435 58.2866 67.7013 58.2148C67.8114 58.0777 67.9026 58.0837 67.8796 58.0837V61.5004V64.917C71.796 64.917 75.6486 61.2244 74.0139 56.6143L70.7937 57.7562ZM67.8796 61.5004V58.0837H57.6785V61.5004V64.917H67.8796V61.5004ZM57.6785 61.5004L61.0279 60.8258C60.2833 57.1285 58.2112 51.034 52.3064 47.3609L50.5017 50.2621L48.6971 53.1633C52.2471 55.3715 53.7339 59.2196 54.329 62.1749L57.6785 61.5004ZM50.5017 50.2621L52.5684 52.9829C53.8827 51.9845 55.6313 51.25 58.0837 51.25V47.8334V44.4167C54.1129 44.4167 50.9176 45.6556 48.4351 47.5413L50.5017 50.2621Z" fill="#1A58E3"/>
<path d="M23.9165 47.8334V44.4167H23.9164L23.9165 47.8334ZM31.4985 50.2621L33.3032 53.1633L37.5163 50.5425L33.5652 47.5413L31.4985 50.2621ZM24.3218 61.5004V64.917H27.119L27.6712 62.1749L24.3218 61.5004ZM11.2065 57.7562L7.98644 56.6141L7.98635 56.6143L11.2065 57.7562ZM23.9165 47.8334V51.25C26.3689 51.25 28.1176 51.9845 29.4319 52.9829L31.4985 50.2621L33.5652 47.5413C31.0826 45.6556 27.8873 44.4167 23.9165 44.4167V47.8334ZM31.4985 50.2621L29.6939 47.3609C23.789 51.034 21.717 57.1285 20.9724 60.8258L24.3218 61.5004L27.6712 62.1749C28.2664 59.2196 29.7531 55.3715 33.3032 53.1633L31.4985 50.2621ZM24.3218 61.5004V58.0837H14.1206V61.5004V64.917H24.3218V61.5004ZM14.1206 61.5004V58.0837C14.0976 58.0837 14.1888 58.0776 14.299 58.2148C14.3567 58.2866 14.4176 58.3986 14.4445 58.5462C14.4729 58.7021 14.4508 58.8304 14.4267 58.8981L11.2065 57.7562L7.98635 56.6143C6.35157 61.2244 10.2042 64.917 14.1206 64.917V61.5004ZM11.2065 57.7562L14.4266 58.8984C15.7081 55.2855 18.3082 51.2502 23.9166 51.25L23.9165 47.8334L23.9164 44.4167C13.8425 44.417 9.57524 52.1348 7.98644 56.6141L11.2065 57.7562Z" fill="#1A58E3"/>
<path d="M41.0001 47.8334C53.2028 47.8334 56.6891 56.5499 57.6851 61.5304C58.0551 63.3807 56.5537 64.9167 54.6667 64.9167H27.3334C25.4464 64.9167 23.9451 63.3807 24.3151 61.5304C25.3111 56.5499 28.7973 47.8334 41.0001 47.8334Z" stroke="#1A58E3" stroke-width="6.83333" stroke-linecap="round"/>
</svg>
