<svg width="32" height="32" viewBox="0 0 32 32" fill="none" xmlns="http://www.w3.org/2000/svg">
<rect width="32" height="32" rx="16" fill="#070707"/>
<path fill-rule="evenodd" clip-rule="evenodd" d="M9.42213 14.2418H20.7776C20.9197 14.2418 21.0499 14.301 21.1565 14.4076L22.9563 16.2548C23.2879 16.5982 23.0511 17.1784 22.5774 17.1784H11.222C11.0799 17.1784 10.9496 17.1192 10.843 17.0126L9.04322 15.1654C8.71168 14.822 8.9485 14.2418 9.42213 14.2418ZM9.04322 11.7907L10.843 9.94354C10.9378 9.83698 11.0799 9.77777 11.222 9.77777H22.5656C23.0392 9.77777 23.276 10.358 22.9445 10.7014L21.1565 12.5486C21.0618 12.6551 20.9197 12.7143 20.7776 12.7143H9.42213C8.9485 12.7143 8.71168 12.1341 9.04322 11.7907ZM22.9445 19.6176L21.1447 21.4648C21.0381 21.5714 20.9079 21.6306 20.7658 21.6306H9.42213C8.9485 21.6306 8.71168 21.0504 9.04322 20.707L10.843 18.8598C10.9378 18.7532 11.0799 18.694 11.222 18.694H22.5656C23.0392 18.694 23.276 19.2742 22.9445 19.6176Z" fill="white"/>
</svg>
