<svg width="552" height="354" viewBox="0 0 552 354" fill="none" xmlns="http://www.w3.org/2000/svg">
<g style="mix-blend-mode:plus-lighter">
<path d="M389.661 -95.1143L405.978 47.0273L548.114 63.3447L549.902 63.5508L548.783 64.96L459.814 177.004L548.783 289.048L549.902 290.458L548.114 290.663L405.978 306.972L389.661 449.114L389.455 450.902L388.045 449.783L276 360.807L163.955 449.783L162.545 450.902L162.339 449.114L146.021 306.972L3.88574 290.663L2.09766 290.458L3.2168 289.048L92.1846 177.004L3.2168 64.96L2.09766 63.5508L3.88574 63.3447L146.021 47.0273L162.339 -95.1143L162.545 -96.9023L163.955 -95.7832L276 -6.80859L388.045 -95.7832L389.455 -96.9023L389.661 -95.1143Z" stroke="url(#paint0_linear_276_131)" stroke-width="2"/>
</g>
<defs>
<linearGradient id="paint0_linear_276_131" x1="272.309" y1="1.96583" x2="264.5" y2="355.5" gradientUnits="userSpaceOnUse">
<stop stop-color="#8800FF"/>
<stop offset="1" stop-color="white" stop-opacity="0.1"/>
</linearGradient>
</defs>
</svg>
