<svg width="36" height="36" viewBox="0 0 36 36" fill="none" xmlns="http://www.w3.org/2000/svg">
<path fill-rule="evenodd" clip-rule="evenodd" d="M34.2237 6.4052L25.3584 6.40289C25.3573 6.40289 25.3561 6.40289 25.3561 6.40289C25.3492 6.40289 25.3425 6.40412 25.3358 6.40412C24.1179 6.44173 22.6011 7.42641 22.3248 8.64059L18.1324 27.3407C17.8561 28.5662 18.6077 29.5635 19.8167 29.5818H29.1301C30.3207 29.5224 31.4777 28.5491 31.7492 27.3487L35.9418 8.64842C36.2225 7.41044 35.4528 6.4052 34.2237 6.4052" fill="#01798A"/>
<path fill-rule="evenodd" clip-rule="evenodd" d="M18.133 27.3407L22.3255 8.64057C22.6018 7.42639 24.1186 6.44172 25.3365 6.40411L21.8117 6.4018L15.461 6.40057C14.2397 6.42575 12.7031 7.41733 12.427 8.64057L8.23325 27.3407C7.95597 28.5662 8.70864 29.5634 9.91693 29.5818H19.8174C18.6083 29.5634 17.8567 28.5662 18.133 27.3407" fill="#024381"/>
<path fill-rule="evenodd" clip-rule="evenodd" d="M8.233 27.3407L12.4267 8.64059C12.7029 7.41734 14.2395 6.42576 15.4608 6.40059L7.3252 6.39844C6.09709 6.39844 4.52251 7.40138 4.24185 8.64059L0.048127 27.3407C0.0226061 27.4548 0.00844741 27.5667 0 27.6761V28.0231C0.0820955 28.9164 0.758909 29.5669 1.7318 29.5818H9.91668C8.70839 29.5635 7.95572 28.5662 8.233 27.3407" fill="#DD0228"/>
<path fill-rule="evenodd" clip-rule="evenodd" d="M15.6319 20.0268H15.7859C15.9274 20.0268 16.0226 19.979 16.0672 19.8842L16.4672 19.2807H17.5386L17.3152 19.6776H18.5998L18.4369 20.2859H16.9083C16.7322 20.5529 16.5155 20.6784 16.255 20.6635H15.4588L15.6319 20.0268ZM15.456 20.8986H18.2704L18.091 21.5593H16.9591L16.7864 22.1971H17.8878L17.7084 22.8578H16.607L16.3512 23.8002C16.2878 23.9577 16.3711 24.0285 16.5997 24.0125H17.4973L17.331 24.6264H15.6077C15.281 24.6264 15.169 24.4381 15.2714 24.0604L15.5986 22.8578H14.8945L15.0734 22.1971H15.7775L15.95 21.5593H15.2771L15.456 20.8986ZM19.9481 19.2761L19.9037 19.6629C19.9037 19.6629 20.4346 19.2611 20.9168 19.2611H22.6985L22.0171 21.7474C21.9606 22.0317 21.7183 22.173 21.2904 22.173H19.271L18.7979 23.9189C18.7707 24.0124 18.8092 24.0604 18.9111 24.0604H19.3084L19.1624 24.6023H18.1522C17.7645 24.6023 17.6032 24.4848 17.6672 24.2487L19.0038 19.2761H19.9481ZM21.4568 19.9789H19.8666L19.6764 20.6498C19.6764 20.6498 19.9412 20.4571 20.3838 20.4502C20.8251 20.4432 21.3289 20.4502 21.3289 20.4502L21.4568 19.9789ZM20.8807 21.5353C20.9983 21.5514 21.064 21.5045 21.072 21.3938L21.1693 21.0401H19.5766L19.443 21.5353H20.8807ZM19.8064 22.3385H20.7245L20.7074 22.739H20.9518C21.0753 22.739 21.1366 22.6991 21.1366 22.6204L21.2089 22.3614H21.9719L21.87 22.739C21.7838 23.0539 21.5554 23.2183 21.1841 23.2343H20.6951L20.6928 23.9189C20.6838 24.0285 20.7822 24.0844 20.9847 24.0844H21.4443L21.296 24.6264H20.1936C19.8846 24.6412 19.733 24.4928 19.7362 24.1779L19.8064 22.3385Z" fill="white"/>
<path fill-rule="evenodd" clip-rule="evenodd" d="M8.68188 15.9636C8.55737 16.5786 8.26873 17.051 7.821 17.3864C7.37734 17.7162 6.80509 17.8816 6.1045 17.8816C5.44518 17.8816 4.96181 17.7127 4.65336 17.3738C4.43943 17.1331 4.33301 16.8273 4.33301 16.4576C4.33301 16.3047 4.35116 16.1404 4.38739 15.9636L5.13386 12.3352H6.26125L5.52495 15.9225C5.50229 16.0218 5.49324 16.1142 5.49443 16.1975C5.49324 16.3813 5.5385 16.5318 5.63018 16.6493C5.76374 16.8239 5.98052 16.9106 6.28218 16.9106C6.62907 16.9106 6.91491 16.8251 7.13676 16.6527C7.35865 16.4816 7.50351 16.2386 7.56859 15.9225L8.30721 12.3352H9.4289L8.68188 15.9636" fill="white"/>
<path fill-rule="evenodd" clip-rule="evenodd" d="M13.4174 14.5362H14.3004L13.6088 17.7745H12.7275L13.4174 14.5362ZM13.6954 13.3564H14.5862L14.4198 14.1424H13.529L13.6954 13.3564Z" fill="white"/>
<path fill-rule="evenodd" clip-rule="evenodd" d="M15.0821 17.5279C14.8511 17.3054 14.7345 17.0053 14.7334 16.6242C14.7334 16.5591 14.7373 16.485 14.7459 16.4039C14.7544 16.3218 14.7652 16.2419 14.7804 16.1678C14.8851 15.6418 15.1081 15.2242 15.4516 14.9161C15.7946 14.6069 16.2084 14.4517 16.6928 14.4517C17.0895 14.4517 17.4042 14.5635 17.6346 14.7871C17.8649 15.0119 17.9803 15.3154 17.9803 15.7012C17.9803 15.7672 17.9753 15.8437 17.9667 15.9259C17.9565 16.0092 17.9442 16.089 17.9299 16.1678C17.8275 16.6858 17.6052 17.0989 17.2616 17.4013C16.918 17.7059 16.5055 17.8576 16.0244 17.8576C15.626 17.8576 15.3124 17.7481 15.0821 17.5279ZM16.7647 16.8866C16.9203 16.7166 17.0318 16.4587 17.0997 16.1153C17.1099 16.0617 17.1189 16.0058 17.1245 15.9499C17.1302 15.8951 17.1325 15.8437 17.1325 15.7969C17.1325 15.5972 17.0821 15.4421 16.9808 15.3326C16.8801 15.2218 16.737 15.1671 16.5519 15.1671C16.3073 15.1671 16.1081 15.2537 15.952 15.4272C15.7946 15.6007 15.6831 15.8631 15.6129 16.2123C15.6033 16.2659 15.5954 16.3196 15.5881 16.372C15.5824 16.4257 15.5807 16.4759 15.5818 16.5215C15.5818 16.72 15.6322 16.873 15.7335 16.9813C15.8342 17.0897 15.9767 17.1434 16.1642 17.1434C16.4098 17.1434 16.609 17.0578 16.7647 16.8866Z" fill="white"/>
<path fill-rule="evenodd" clip-rule="evenodd" d="M23.7082 20.0541L23.9211 19.2988H24.9975L24.951 19.576C24.951 19.576 25.5011 19.2988 25.8972 19.2988C26.2935 19.2988 27.2283 19.2988 27.2283 19.2988L27.0167 20.0541H26.8073L25.8033 23.6164H26.0127L25.8135 24.3239H25.6041L25.5169 24.6308H24.4745L24.5615 24.3239H22.5049L22.7053 23.6164H22.9114L23.9163 20.0541H23.7082ZM24.8695 20.0542L24.5956 21.0183C24.5956 21.0183 25.0643 20.8369 25.4683 20.7856C25.5576 20.4489 25.6742 20.0542 25.6742 20.0542L24.8695 20.0542ZM24.4687 21.4701L24.1938 22.4799C24.1938 22.4799 24.7133 22.2221 25.0698 22.2004C25.1728 21.8101 25.2759 21.4701 25.2759 21.4701L24.4687 21.4701ZM24.6702 23.6164L24.8762 22.8839H24.0727L23.8656 23.6164H24.6702ZM27.2736 19.252H28.2856L28.3286 19.6285C28.3219 19.7243 28.3784 19.77 28.4984 19.77H28.6772L28.4962 20.4078H27.7524C27.4684 20.4226 27.3224 20.3132 27.3088 20.0769L27.2736 19.252ZM26.9771 20.6201H30.2551L30.0627 21.3048H29.0191L28.8401 21.9413H29.8827L29.6892 22.6248H28.5279L28.2652 23.0254H28.8336L28.9648 23.8275C28.9805 23.9074 29.0507 23.9462 29.1708 23.9462H29.3473L29.1618 24.6067H28.5369C28.2131 24.6228 28.0458 24.5133 28.0321 24.2771L27.8814 23.5446L27.3642 24.3239C27.242 24.5441 27.054 24.6468 26.8006 24.6308H25.8463L26.032 23.9701H26.3297C26.452 23.9701 26.5537 23.9153 26.6454 23.8047L27.4549 22.6248H26.4112L26.6046 21.9413H27.7366L27.9166 21.3048H26.7836L26.9771 20.6201Z" fill="white"/>
<path fill-rule="evenodd" clip-rule="evenodd" d="M9.72048 14.535H10.5167L10.4257 15.0028L10.54 14.8693C10.7981 14.591 11.1116 14.4529 11.4817 14.4529C11.8168 14.4529 12.0584 14.551 12.2101 14.7484C12.3595 14.9458 12.4003 15.2185 12.3296 15.5688L11.8909 17.7755H11.0726L11.4687 15.7753C11.5095 15.5688 11.4982 15.4148 11.4353 15.3154C11.3731 15.2162 11.2542 15.1672 11.0827 15.1672C10.8722 15.1672 10.695 15.2333 10.5507 15.3646C10.4058 15.4969 10.3102 15.6807 10.2632 15.9145L9.89818 17.7755H9.07812L9.72048 14.535" fill="white"/>
<path fill-rule="evenodd" clip-rule="evenodd" d="M18.8522 14.535H19.6491L19.5587 15.0028L19.6717 14.8693C19.93 14.591 20.2446 14.4529 20.6136 14.4529C20.9487 14.4529 21.1908 14.551 21.3413 14.7484C21.4898 14.9458 21.5327 15.2185 21.4602 15.5688L21.0233 17.7755H20.2038L20.6001 15.7753C20.6407 15.5688 20.6294 15.4148 20.5672 15.3154C20.5026 15.2162 20.3859 15.1672 20.2152 15.1672C20.0046 15.1672 19.8281 15.2333 19.682 15.3646C19.537 15.4969 19.4409 15.6807 19.3957 15.9145L19.029 17.7755H18.21L18.8522 14.535" fill="white"/>
<path fill-rule="evenodd" clip-rule="evenodd" d="M22.7913 12.5268H25.1049C25.5498 12.5268 25.8938 12.6284 26.1303 12.828C26.3658 13.03 26.4837 13.3199 26.4837 13.6975V13.7089C26.4837 13.7807 26.4789 13.8618 26.4722 13.9496C26.4608 14.0363 26.446 14.1242 26.427 14.2155C26.3251 14.7153 26.0885 15.117 25.7229 15.4216C25.3561 15.7251 24.9216 15.878 24.4213 15.878H23.1806L22.7969 17.7755H21.7227L22.7913 12.5268ZM23.3695 14.9652H24.3986C24.6668 14.9652 24.8795 14.9024 25.0347 14.7781C25.1887 14.6525 25.2906 14.4609 25.3471 14.2008C25.3561 14.1527 25.3617 14.1094 25.3685 14.0695C25.372 14.0319 25.3765 13.9941 25.3765 13.9577C25.3765 13.7717 25.311 13.637 25.1796 13.5526C25.0483 13.4669 24.8424 13.4259 24.557 13.4259H23.6831L23.3695 14.9652Z" fill="white"/>
<path fill-rule="evenodd" clip-rule="evenodd" d="M31.2921 18.402C30.9525 19.1299 30.6289 19.5543 30.4388 19.7517C30.2485 19.9469 29.8717 20.401 28.9639 20.3667L29.042 19.8111C29.8059 19.5738 30.2191 18.5045 30.4545 18.0311L30.1738 14.5441L30.7647 14.5361H31.2605L31.3138 16.7235L32.2429 14.5361H33.1836L31.2921 18.402" fill="white"/>
<path fill-rule="evenodd" clip-rule="evenodd" d="M28.662 14.7997L28.2883 15.0588C27.8978 14.7507 27.5413 14.5602 26.8532 14.8819C25.9159 15.32 25.1326 18.6804 27.7134 17.5736L27.8605 17.7493L28.8759 17.7755L29.5426 14.7221L28.662 14.7997ZM28.0847 16.469C27.9216 16.954 27.5573 17.2746 27.272 17.1833C26.9868 17.0943 26.8849 16.6265 27.0501 16.1404C27.2131 15.6543 27.5798 15.3349 27.8628 15.4261C28.148 15.5151 28.251 15.9829 28.0847 16.469Z" fill="white"/>
</svg>
