<svg width="32" height="32" viewBox="0 0 32 32" fill="none" xmlns="http://www.w3.org/2000/svg">
<g clip-path="url(#clip0_370_230)">
<path d="M16 32C24.8366 32 32 24.8366 32 16C32 7.16344 24.8366 0 16 0C7.16344 0 0 7.16344 0 16C0 24.8366 7.16344 32 16 32Z" fill="#26A17B"/>
<path fill-rule="evenodd" clip-rule="evenodd" d="M17.9228 17.3833V17.3813C17.8128 17.3893 17.2458 17.4233 15.9808 17.4233C14.9708 17.4233 14.2598 17.3933 14.0098 17.3813V17.3843C10.1218 17.2133 7.21978 16.5363 7.21978 15.7263C7.21978 14.9173 10.1218 14.2403 14.0098 14.0663V16.7103C14.2638 16.7283 14.9918 16.7713 15.9978 16.7713C17.2048 16.7713 17.8098 16.7213 17.9228 16.7113V14.0683C21.8028 14.2413 24.6978 14.9183 24.6978 15.7263C24.6978 16.5363 21.8028 17.2113 17.9228 17.3833ZM17.9228 13.7933V11.4273H23.3368V7.81927H8.59578V11.4273H14.0098V13.7923C9.60978 13.9943 6.30078 14.8663 6.30078 15.9103C6.30078 16.9543 9.60978 17.8253 14.0098 18.0283V25.6103H17.9228V18.0263C22.3158 17.8243 25.6168 16.9533 25.6168 15.9103C25.6168 14.8673 22.3158 13.9963 17.9228 13.7933Z" fill="white"/>
</g>
<defs>
<clipPath id="clip0_370_230">
<rect width="32" height="32" fill="white"/>
</clipPath>
</defs>
</svg>
