<svg width="36" height="36" viewBox="0 0 36 36" fill="none" xmlns="http://www.w3.org/2000/svg">
<path d="M17.8249 12.3694L15.4198 23.6137H12.5106L14.916 12.3694H17.8249ZM30.0634 19.63L31.5944 15.4075L32.4755 19.63H30.0634ZM33.3101 23.6137H36L33.65 12.3694H31.1688C30.6096 12.3694 30.1382 12.6936 29.9296 13.1936L25.5647 23.6137H28.6198L29.2262 21.9345H32.9578L33.3101 23.6137ZM25.7162 19.9429C25.7288 16.9753 21.6139 16.8109 21.6414 15.4849C21.6503 15.0821 22.0347 14.6529 22.8748 14.5431C23.2914 14.4895 24.4408 14.446 25.7438 15.0464L26.2534 12.661C25.5536 12.4079 24.653 12.1641 23.5324 12.1641C20.6566 12.1641 18.6336 13.6916 18.6175 15.8807C18.599 17.4996 20.0626 18.4022 21.1629 18.9414C22.2975 19.4924 22.6776 19.8457 22.672 20.3381C22.6642 21.0926 21.7674 21.4266 20.9323 21.4393C19.469 21.462 18.6208 21.0437 17.9447 20.7286L17.4167 23.1937C18.0975 23.5053 19.3519 23.7764 20.6508 23.7903C23.7081 23.7903 25.7071 22.2807 25.7162 19.9429ZM13.6681 12.3694L8.95479 23.6137H5.88025L3.56062 14.64C3.42001 14.0881 3.29735 13.8853 2.86969 13.6521C2.17016 13.2723 1.01541 12.917 0 12.6959L0.0687904 12.3694H5.01861C5.6491 12.3694 6.21636 12.789 6.36077 13.5153L7.58608 20.0225L10.6121 12.3694H13.6681Z" fill="#1434CB"/>
</svg>
