<svg width="77" height="21" viewBox="0 0 77 21" fill="none" xmlns="http://www.w3.org/2000/svg">
<path d="M38.1254 0.86174L32.9811 20.6679H26.7588L31.9036 0.86174H38.1254ZM64.3022 13.6508L67.577 6.21321L69.4616 13.6508H64.3022ZM71.2466 20.6679H77L71.9737 0.86174H66.6666C65.4706 0.86174 64.4623 1.43284 64.016 2.31354L54.6801 20.6679H61.2145L62.5117 17.71H70.4931L71.2466 20.6679ZM55.0041 14.2019C55.0311 8.9747 46.2296 8.68514 46.2886 6.34952C46.3075 5.63988 47.1298 4.88392 48.9267 4.69058C49.8176 4.59614 52.2762 4.51952 55.0631 5.57707L56.153 1.37537C54.6563 0.929451 52.73 0.500015 50.3332 0.500015C44.1822 0.500015 39.8553 3.19067 39.8207 7.04669C39.7812 9.89816 42.9116 11.4881 45.2652 12.4378C47.6918 13.4085 48.5048 14.0308 48.4929 14.8982C48.4761 16.227 46.558 16.8155 44.7718 16.8377C41.642 16.8778 39.8277 16.141 38.3818 15.586L37.2523 19.928C38.7085 20.4768 41.3915 20.9544 44.1698 20.9789C50.7091 20.9789 54.9846 18.3198 55.0041 14.2019ZM29.2347 0.86174L19.1533 20.6679H12.5772L7.61578 4.8612C7.31502 3.88918 7.05267 3.5319 6.13795 3.12118C4.64174 2.45208 2.17184 1.82619 0 1.43685L0.147135 0.86174H10.7342C12.0828 0.86174 13.2961 1.60078 13.605 2.88018L16.2258 14.3422L22.698 0.86174H29.2347Z" fill="#1434CB"/>
</svg>
