<svg width="82" height="82" viewBox="0 0 82 82" fill="none" xmlns="http://www.w3.org/2000/svg">
<path d="M10.25 22.2083V22.2083C10.25 17.4909 14.0743 13.6667 18.7917 13.6667L65.8929 13.6667C66.5745 13.6667 66.9153 13.6667 67.1892 13.7625C67.6799 13.9342 68.0658 14.3201 68.2375 14.8108C68.3333 15.0847 68.3333 15.4255 68.3333 16.1071V16.1071C68.3333 20.1967 68.3333 22.2415 67.7581 23.8854C66.7279 26.8296 64.413 29.1446 61.4687 30.1748C59.8249 30.75 57.7801 30.75 53.6905 30.75H51.25M10.25 22.2083V22.2083C10.25 26.9258 14.0743 30.75 18.7917 30.75L64.9167 30.75C68.1379 30.75 69.7486 30.75 70.7493 31.7507C71.75 32.7514 71.75 34.3621 71.75 37.5833L71.75 44.4167M10.25 22.2083L10.25 58.0833C10.25 64.5259 10.25 67.7471 12.2515 69.7486C14.2529 71.75 17.4742 71.75 23.9167 71.75L64.9167 71.75C68.1379 71.75 69.7486 71.75 70.7493 70.7493C71.75 69.7486 71.75 68.1379 71.75 64.9167L71.75 58.0833M71.75 58.0833H58.0833C54.8621 58.0833 53.2514 58.0833 52.2507 57.0826C52.2507 57.0826 52.2507 57.0826 52.2507 57.0826C51.25 56.0819 51.25 54.4713 51.25 51.25V51.25C51.25 48.0287 51.25 46.4181 52.2507 45.4174C52.2507 45.4174 52.2507 45.4174 52.2507 45.4174C53.2514 44.4167 54.8621 44.4167 58.0833 44.4167H71.75M71.75 58.0833L71.75 44.4167" stroke="#16DB16" stroke-width="6.83333"/>
</svg>
