<svg width="32" height="32" viewBox="0 0 32 32" fill="none" xmlns="http://www.w3.org/2000/svg">
<g clip-path="url(#clip0_370_454)">
<path d="M16 32C24.8366 32 32 24.8366 32 16C32 7.16344 24.8366 0 16 0C7.16344 0 0 7.16344 0 16C0 24.8366 7.16344 32 16 32Z" fill="#23292F"/>
<path d="M23.07 8H25.96L19.945 13.957C18.8935 14.9934 17.4764 15.5743 16 15.5743C14.5236 15.5743 13.1065 14.9934 12.055 13.957L6.035 8H8.93L13.5 12.523C14.1655 13.1799 15.0629 13.5482 15.998 13.5482C16.9331 13.5482 17.8305 13.1799 18.496 12.523L23.07 8ZM8.895 24.563H6L12.055 18.57C13.1065 17.5336 14.5236 16.9527 16 16.9527C17.4764 16.9527 18.8935 17.5336 19.945 18.57L26 24.562H23.105L18.5 20C17.8345 19.3431 16.9371 18.9748 16.002 18.9748C15.0669 18.9748 14.1695 19.3431 13.504 20L8.894 24.563H8.895Z" fill="white"/>
</g>
<defs>
<clipPath id="clip0_370_454">
<rect width="32" height="32" fill="white"/>
</clipPath>
</defs>
</svg>
